<?xml version="1.0" encoding="UTF-8" standalone="no"?>
<svg
   xmlns:dc="http://purl.org/dc/elements/1.1/"
   xmlns:cc="http://creativecommons.org/ns#"
   xmlns:rdf="http://www.w3.org/1999/02/22-rdf-syntax-ns#"
   xmlns:svg="http://www.w3.org/2000/svg"
   xmlns="http://www.w3.org/2000/svg"
   xmlns:xlink="http://www.w3.org/1999/xlink"
   xmlns:sodipodi="http://sodipodi.sourceforge.net/DTD/sodipodi-0.dtd"
   xmlns:inkscape="http://www.inkscape.org/namespaces/inkscape"
   inkscape:export-ydpi="172"
   inkscape:export-xdpi="172"
   inkscape:export-filename="C:\Users\nor2rng\dev\github\ord\OpenRobotDatabase\docs\img\logo\ord02.png"
   sodipodi:docname="ord03.svg"
   inkscape:version="0.92.4 (5da689c313, 2019-01-14)"
   id="svg8"
   version="1.1"
   viewBox="0 0 210 297"
   height="297mm"
   width="210mm">
  <defs
     id="defs2">
    <inkscape:path-effect
       effect="spiro"
       id="path-effect1343"
       is_visible="true" />
    <inkscape:path-effect
       effect="spiro"
       id="path-effect1287"
       is_visible="true" />
    <inkscape:path-effect
       effect="spiro"
       id="path-effect1210"
       is_visible="true" />
    <inkscape:path-effect
       is_visible="true"
       id="path-effect1188"
       effect="spiro" />
    <linearGradient
       inkscape:collect="always"
       id="linearGradient1169">
      <stop
         style="stop-color:#636363;stop-opacity:1"
         offset="0"
         id="stop1165" />
      <stop
         style="stop-color:#0b0b0b;stop-opacity:1"
         offset="1"
         id="stop1167" />
    </linearGradient>
    <linearGradient
       inkscape:collect="always"
       id="linearGradient1161">
      <stop
         style="stop-color:#080808;stop-opacity:1"
         offset="0"
         id="stop1157" />
      <stop
         style="stop-color:#636363;stop-opacity:1"
         offset="1"
         id="stop1159" />
    </linearGradient>
    <inkscape:path-effect
       is_visible="true"
       id="path-effect1135"
       effect="spiro" />
    <inkscape:path-effect
       effect="spiro"
       id="path-effect1131"
       is_visible="true" />
    <inkscape:perspective
       sodipodi:type="inkscape:persp3d"
       inkscape:vp_x="0 : 148.5 : 1"
       inkscape:vp_y="0 : 1000 : 0"
       inkscape:vp_z="210 : 148.5 : 1"
       inkscape:persp3d-origin="105 : 99 : 1"
       id="perspective1079" />
    <linearGradient
       inkscape:collect="always"
       xlink:href="#linearGradient1161"
       id="linearGradient1204"
       gradientUnits="userSpaceOnUse"
       gradientTransform="translate(108.63426,-241.27111)"
       x1="-93.963753"
       y1="358.53345"
       x2="-61.35767"
       y2="285.79279" />
    <linearGradient
       inkscape:collect="always"
       xlink:href="#linearGradient1169"
       id="linearGradient1206"
       gradientUnits="userSpaceOnUse"
       x1="-67.374252"
       y1="292.54373"
       x2="-51.38298"
       y2="285.46109"
       gradientTransform="translate(107.70962,-258.98417)" />
    <linearGradient
       inkscape:collect="always"
       xlink:href="#linearGradient1161"
       id="linearGradient1391"
       gradientUnits="userSpaceOnUse"
       gradientTransform="translate(467.29896,141.67519)"
       x1="-93.963753"
       y1="358.53345"
       x2="-61.35767"
       y2="285.79279" />
    <linearGradient
       inkscape:collect="always"
       xlink:href="#linearGradient1169"
       id="linearGradient1393"
       gradientUnits="userSpaceOnUse"
       gradientTransform="translate(461.57447,65.481034)"
       x1="-67.374252"
       y1="292.54373"
       x2="-51.38298"
       y2="285.46109" />
  </defs>
  <sodipodi:namedview
     inkscape:document-rotation="0"
     inkscape:window-maximized="1"
     inkscape:window-y="-11"
     inkscape:window-x="3829"
     inkscape:window-height="1541"
     inkscape:window-width="2880"
     showgrid="false"
     inkscape:current-layer="layer1"
     inkscape:document-units="mm"
     inkscape:cy="390.49605"
     inkscape:cx="485.97191"
     inkscape:zoom="0.9899495"
     inkscape:pageshadow="2"
     inkscape:pageopacity="0.0"
     borderopacity="1.0"
     bordercolor="#666666"
     pagecolor="#ffffff"
     id="base" />
  <metadata
     id="metadata5">
    <rdf:RDF>
      <cc:Work
         rdf:about="">
        <dc:format>image/svg+xml</dc:format>
        <dc:type
           rdf:resource="http://purl.org/dc/dcmitype/StillImage" />
        <dc:title></dc:title>
      </cc:Work>
    </rdf:RDF>
  </metadata>
  <g
     id="layer1"
     inkscape:groupmode="layer"
     inkscape:label="Layer 1">
    <path
       inkscape:connector-curvature="0"
       id="path1180"
       d="m 14.61316,32.740667 c -0.0201,-2.17361 0.51103,-3.8391 1.94491,-6.09859 4.95502,-7.80796 18.56546,-13.74844 34.14659,-14.9038 19.269161,-1.42884 34.921881,5.19848 35.326311,14.95714 0.40759,9.83451 -15.47481,19.33666 -35.098381,20.99862 -8.05357,0.68208 -16.64075,-0.10465 -22.74531,-2.08392 -1.08527,-0.35173 -2.1141,-0.76905 -2.28635,-0.92713 -0.71196,-0.65329 -0.30204,-0.94188 8.20839,-5.77875 4.49193,-2.55295 8.51572,-4.76557 8.94173,-4.91689 0.60757,-0.21574 1.062,-0.22932 2.10697,-0.0624 2.4721,0.3947 4.27189,0.46087 6.04939,0.22263 4.80643,-0.6442 8.17933,-2.90033 7.95921,-5.32424 -0.0779,-0.85975 -0.24155,-1.12347 -1.14705,-1.84996 -2.3278,-1.86769 -6.89336,-2.28806 -11.21852,-1.03298 -3.1161,0.90421 -4.72083,2.17039 -5.55672,4.38432 -0.19949,0.5286 -0.48292,0.81064 -0.98065,0.9761 -1.07246,0.35658 -22.89443,3.85674 -23.90293,3.83395 -1.32665,-0.0301 -1.7309,-0.58353 -1.74759,-2.39403 z"
       style="fill:#000000;stroke:#ffffff;stroke-width:1" />
    <path
       style="fill:#000000;stroke:#ffffff;stroke-width:1"
       d="m 14.61316,112.65426 c -0.0201,-2.17361 0.51103,-3.8391 1.94491,-6.09859 4.95502,-7.807963 18.56546,-13.748443 34.14659,-14.903803 19.269161,-1.42884 34.921881,5.19848 35.326311,14.957143 0.40759,9.83451 -15.47481,19.33666 -35.098381,20.99862 -8.05357,0.68208 -16.64075,-0.10465 -22.74531,-2.08392 -1.08527,-0.35173 -2.1141,-0.76905 -2.28635,-0.92713 -0.71196,-0.65329 -0.30204,-0.94188 8.20839,-5.77875 4.49193,-2.55295 8.51572,-4.76557 8.94173,-4.91689 0.60757,-0.21574 1.062,-0.22932 2.10697,-0.0624 2.4721,0.3947 4.27189,0.46087 6.04939,0.22263 4.80643,-0.6442 8.17933,-2.90033 7.95921,-5.32424 -0.0779,-0.85975 -0.24155,-1.12347 -1.14705,-1.84996 -2.3278,-1.86769 -6.89336,-2.28806 -11.21852,-1.03298 -3.1161,0.90421 -4.72083,2.17039 -5.55672,4.38432 -0.19949,0.5286 -0.48292,0.81064 -0.98065,0.9761 -1.07246,0.35658 -22.89443,3.85674 -23.90293,3.83395 -1.32665,-0.0301 -1.7309,-0.58353 -1.74759,-2.39403 z"
       id="path1182"
       inkscape:connector-curvature="0" />
    <path
       inkscape:connector-curvature="0"
       id="path1184"
       d="m 14.61316,112.65426 c -0.0201,-2.17361 0.51103,-3.8391 1.94491,-6.09859 4.95502,-7.807963 18.56546,-13.748443 34.14659,-14.903803 19.269161,-1.42884 34.921881,5.19848 35.326311,14.957143 0.40759,9.83451 -15.47481,19.33666 -35.098381,20.99862 -8.05357,0.68208 -16.64075,-0.10465 -22.74531,-2.08392 -1.08527,-0.35173 -2.1141,-0.76905 -2.28635,-0.92713 -0.71196,-0.65329 -0.30204,-0.94188 8.20839,-5.77875 4.49193,-2.55295 8.51572,-4.76557 8.94173,-4.91689 0.60757,-0.21574 1.062,-0.22932 2.10697,-0.0624 2.4721,0.3947 4.27189,0.46087 6.04939,0.22263 4.80643,-0.6442 8.17933,-2.90033 7.95921,-5.32424 -0.0779,-0.85975 -0.24155,-1.12347 -1.14705,-1.84996 -2.3278,-1.86769 -6.89336,-2.28806 -11.21852,-1.03298 -3.1161,0.90421 -4.72083,2.17039 -5.55672,4.38432 -0.19949,0.5286 -0.48292,0.81064 -0.98065,0.9761 -1.07246,0.35658 -22.89443,3.85674 -23.90293,3.83395 -1.32665,-0.0301 -1.7309,-0.58353 -1.74759,-2.39403 z"
       style="fill:#000000;stroke:#ffffff;stroke-width:1" />
    <path
       transform="translate(102.23059,-259.22439)"
       inkscape:original-d="m -21.916101,287.91283 v 78.57723"
       inkscape:path-effect="#path-effect1188"
       inkscape:connector-curvature="0"
       id="path1186"
       d="m -21.916101,287.91283 v 78.57723"
       style="fill:none;stroke:#000000;stroke-width:9.16499996;stroke-linecap:butt;stroke-linejoin:miter;stroke-miterlimit:4;stroke-dasharray:none;stroke-opacity:1" />
    <rect
       transform="matrix(0.98661743,-0.16305226,0,1,0,0)"
       ry="0.2362327"
       rx="3.9377878"
       y="35.548058"
       x="14.670502"
       height="81.714249"
       width="37.550179"
       id="rect1190"
       style="opacity:1;fill:url(#linearGradient1204);fill-opacity:1;stroke:none;stroke-width:9.22694683;stroke-linecap:round;stroke-miterlimit:4;stroke-dasharray:none;stroke-dashoffset:0;stroke-opacity:1" />
    <ellipse
       ry="6.1421132"
       rx="9.7328873"
       cy="109.35883"
       cx="50.068256"
       id="ellipse1192"
       style="opacity:1;fill:#333333;fill-opacity:1;stroke:none;stroke-width:9.16499996;stroke-linecap:round;stroke-miterlimit:4;stroke-dasharray:none;stroke-dashoffset:0;stroke-opacity:1" />
    <ellipse
       style="opacity:1;fill:url(#linearGradient1206);fill-opacity:1;stroke:none;stroke-width:9.16499996;stroke-linecap:round;stroke-miterlimit:4;stroke-dasharray:none;stroke-dashoffset:0;stroke-opacity:1"
       id="ellipse1194"
       cx="50.068256"
       cy="29.416878"
       rx="9.7328873"
       ry="6.1421132" />
    <rect
       style="opacity:1;fill:#000000;fill-opacity:1;stroke:none;stroke-width:9.73608398;stroke-linecap:round;stroke-miterlimit:4;stroke-dasharray:none;stroke-dashoffset:0;stroke-opacity:1"
       id="rect1196"
       width="20.054535"
       height="79.760803"
       x="29.586082"
       y="58.170681"
       rx="2.883786"
       ry="0.2362327"
       transform="matrix(0.88612739,-0.46344175,0,1,0,0)" />
    <rect
       transform="matrix(0.95625222,-0.29254348,0,1,0,0)"
       ry="0.2362327"
       rx="2.6713922"
       y="59.503723"
       x="43.340843"
       height="79.760803"
       width="41.362873"
       id="rect1198"
       style="opacity:1;fill:#000000;fill-opacity:1;stroke:none;stroke-width:9.37229919;stroke-linecap:round;stroke-miterlimit:4;stroke-dasharray:none;stroke-dashoffset:0;stroke-opacity:1" />
    <path
       style="fill:#000000;stroke:#e5e5e5;stroke-width:1.89999998;stroke-miterlimit:4;stroke-dasharray:none;stroke-opacity:1"
       d="m 16.113733,29.845647 c -0.01938,-2.0938 0.492721,-3.69813 1.87523,-5.87465 4.777499,-7.52124 17.900324,-13.24358 32.923236,-14.3565204 18.578812,-1.37637 33.670742,5.0075904 34.060682,14.4079004 0.39299,9.47338 -14.9204,18.6266 -33.840918,20.22753 -7.765039,0.65704 -16.04457,-0.1008 -21.930424,-2.00739 -7.606407,-10.94945 2.174664,-8.06367 14.331252,-11.19597 0.585803,-0.20782 1.023952,-0.2209 2.031485,-0.0601 2.383533,0.3802 4.118843,0.44394 5.832661,0.21445 4.634232,-0.62054 7.886293,-2.79383 7.674059,-5.12873 -0.07511,-0.82818 -0.232896,-1.08221 -1.105955,-1.78202 -2.244403,-1.79911 -6.646395,-2.20404 -10.816599,-0.99505 -3.004461,0.871 -4.551699,2.09069 -5.357642,4.22332 -0.192343,0.50919 -0.465619,0.78087 -0.945517,0.94026 -1.034037,0.34348 -22.074202,3.71511 -23.04657,3.69316 -1.279121,-0.029 -1.668888,-0.5621 -1.68498,-2.30612 z"
       id="path1200"
       inkscape:connector-curvature="0"
       sodipodi:nodetypes="ccscscccccccccccc" />
    <path
       style="opacity:1;fill:#e4e4e4;fill-opacity:1;stroke:none;stroke-width:9.16499996;stroke-linecap:round;stroke-miterlimit:4;stroke-dasharray:none;stroke-dashoffset:0;stroke-opacity:1"
       d="m 25.93964,35.202357 1.151006,-0.14174 c 0.243035,1.22842 1.500591,3.83788 1.500591,3.96874 V 124.7153 c 0,0.13088 1.853948,1.72452 1.853948,1.72452 0,0 -3.995884,-0.58271 -5.993826,-0.87407 -0.0067,-9.8e-4 -0.363101,-0.98518 -0.363101,-0.8543 0,0.19785 1.107379,-11.28671 0.606144,-23.63293 -0.501234,-12.346223 0.315772,-29.151933 0.588364,-38.942163 0.480983,-17.27463 -0.176675,-18.17919 -0.08776,-25.23311 0.0016,-0.13086 0.73788,-1.70006 0.744639,-1.70089 z"
       id="rect1215"
       inkscape:connector-curvature="0"
       sodipodi:nodetypes="scsscsszsss" />
    <path
       style="color:#000000;font-style:normal;font-variant:normal;font-weight:normal;font-stretch:normal;font-size:medium;line-height:normal;font-family:sans-serif;font-variant-ligatures:normal;font-variant-position:normal;font-variant-caps:normal;font-variant-numeric:normal;font-variant-alternates:normal;font-feature-settings:normal;text-indent:0;text-align:start;text-decoration:none;text-decoration-line:none;text-decoration-style:solid;text-decoration-color:#000000;letter-spacing:normal;word-spacing:normal;text-transform:none;writing-mode:lr-tb;direction:ltr;text-orientation:mixed;dominant-baseline:auto;baseline-shift:baseline;text-anchor:start;white-space:normal;shape-padding:0;clip-rule:nonzero;display:inline;overflow:visible;visibility:visible;isolation:auto;mix-blend-mode:normal;color-interpolation:sRGB;color-interpolation-filters:linearRGB;solid-color:#000000;solid-opacity:1;vector-effect:none;fill:#e6e6e6;fill-opacity:0.989276;fill-rule:nonzero;stroke:none;stroke-width:6.61457968;stroke-linecap:round;stroke-linejoin:round;stroke-miterlimit:4;stroke-dasharray:none;stroke-dashoffset:0;stroke-opacity:1;color-rendering:auto;image-rendering:auto;shape-rendering:auto;text-rendering:auto;enable-background:accumulate"
       d="M 46.625439,8.5644866 C 35.1672,9.2889466 21.292303,11.552817 15.393017,22.623087 c -3.312211,14.52762 -0.171762,29.39005 -1.197019,44.13279 0.236558,16.14476 -2.49649,32.32895 0.278175,48.114363 3.571622,-0.47856 2.524451,-1.17129 2.625875,-3.75692 -1.863077,-10.5138 1.530811,-21.368783 -0.71875,-31.869143 0.553103,-9.96986 1.111616,-19.9151 0.06641,-29.8125 0.984998,-7.88796 0.09314,-15.97169 0.898438,-23.77539 4.071461,-7.49441 13.777281,-9.34211 21.461973,-11.03542 13.828819,-1.49134 29.975562,-1.67632 41.213802,7.80691 5.94706,3.72339 1.86781,11.28189 -3.29687,13.43359 -15.049589,6.85385 -33.099028,8.25066 -48.642577,2.13867 -1.17445,4.1253 0.678046,6.28602 4.583984,6.70899 15.631741,4.56031 32.98084,2.61176 47.201163,-5.2461 5.38782,-0.32363 3.20715,6.73627 3.79102,9.93946 0.95391,6.59692 -2.99131,12.8494 -9.36328,14.83593 -14.357709,6.45601 -31.348631,6.18526 -46.078122,1.13477 -1.646233,4.70113 1.336045,6.41996 5.363091,7.00399 13.832626,3.64964 29.046018,2.57694 41.951361,-3.39266 2.30992,-2.8119 8.45421,-3.34478 8.01367,1.60742 0.32893,6.97218 1.21574,16.6053 -6.82422,19.7539 -14.75101,7.8248 -32.970107,7.74131 -48.503902,2.36329 -1.156947,4.04746 0.329029,6.4364 4.402344,6.75781 13.998008,3.991113 29.714701,2.994233 42.916008,-3.08789 2.31509,-2.90226 8.52799,-3.35846 7.99805,1.65234 0.27359,6.740983 1.19396,15.819183 -6.32422,19.269533 -13.137437,8.07892 -29.824372,7.36386 -44.396342,4.39198 -3.104858,-1.05404 -6.110637,-2.65231 -4.59584,2.51818 0.469193,3.16633 5.983176,2.5751 8.676966,3.64517 15.053044,2.24572 32.839196,2.34754 44.836706,-8.66666 8.27299,-9.12666 2.62894,-22.197183 4.24804,-33.142573 -0.59791,-21.17053 1.55771,-42.64517 -1.23437,-63.54493 C 77.420991,9.3991866 59.715456,8.6038166 46.625443,8.5644866 Z"
       id="path1202"
       inkscape:connector-curvature="0"
       sodipodi:nodetypes="cccccccccccccccccccccccccccccccccc" />
    <ellipse
       style="fill:#ff0000;stroke:none;stroke-width:6.61459017;stroke-linecap:round;stroke-linejoin:round;stroke-miterlimit:4;stroke-dasharray:none"
       id="ellipse1246"
       cx="33.59161"
       cy="56.528542"
       rx="2.2534454"
       ry="3.2304215" />
    <ellipse
       cy="83.848732"
       cx="33.59161"
       id="ellipse1248"
       style="fill:#00ff00;stroke:none;stroke-width:6.61459017;stroke-linecap:round;stroke-linejoin:round;stroke-miterlimit:4;stroke-dasharray:none"
       rx="2.2534454"
       ry="3.2304215" />
    <ellipse
       style="fill:#0000ff;stroke:none;stroke-width:6.61459017;stroke-linecap:round;stroke-linejoin:round;stroke-miterlimit:4;stroke-dasharray:none"
       id="ellipse1250"
       cx="33.59161"
       cy="111.16892"
       rx="2.2534454"
       ry="3.2304215" />
    <text
       xml:space="preserve"
       style="font-style:normal;font-variant:normal;font-weight:normal;font-stretch:normal;font-size:15.82559967px;line-height:1.25;font-family:Barlow;-inkscape-font-specification:Barlow;text-align:center;letter-spacing:0px;word-spacing:0px;text-anchor:middle;fill:#ffffff;fill-opacity:1;stroke:none;stroke-width:0.26458299"
       x="71.645958"
       y="59.13633"
       id="text1254"><tspan
         sodipodi:role="line"
         id="tspan1252"
         x="71.645958"
         y="59.13633"
         style="font-style:normal;font-variant:normal;font-weight:bold;font-stretch:normal;font-family:Barlow;-inkscape-font-specification:'Barlow Bold';fill:#ffffff;stroke-width:0.26458299">O</tspan></text>
    <text
       id="text1258"
       y="87.58979"
       x="71.116791"
       style="font-style:normal;font-variant:normal;font-weight:normal;font-stretch:normal;font-size:15.82559967px;line-height:1.25;font-family:Barlow;-inkscape-font-specification:Barlow;text-align:center;letter-spacing:0px;word-spacing:0px;text-anchor:middle;fill:#ffffff;fill-opacity:1;stroke:none;stroke-width:0.26458299"
       xml:space="preserve"><tspan
         style="font-style:normal;font-variant:normal;font-weight:bold;font-stretch:normal;font-family:Barlow;-inkscape-font-specification:'Barlow Bold';fill:#ffffff;stroke-width:0.26458299"
         y="87.58979"
         x="71.116791"
         id="tspan1256"
         sodipodi:role="line">R</tspan></text>
    <text
       xml:space="preserve"
       style="font-style:normal;font-variant:normal;font-weight:normal;font-stretch:normal;font-size:15.82559967px;line-height:1.25;font-family:Barlow;-inkscape-font-specification:Barlow;text-align:center;letter-spacing:0px;word-spacing:0px;text-anchor:middle;fill:#ffffff;fill-opacity:1;stroke:none;stroke-width:0.26458299"
       x="70.587608"
       y="115.51411"
       id="text1262"><tspan
         sodipodi:role="line"
         id="tspan1260"
         x="70.587608"
         y="115.51411"
         style="font-style:normal;font-variant:normal;font-weight:bold;font-stretch:normal;font-family:Barlow;-inkscape-font-specification:'Barlow Bold';fill:#ffffff;stroke-width:0.26458299">D</tspan></text>
    <text
       id="text1266"
       y="59.13633"
       x="102.49416"
       style="font-style:normal;font-variant:normal;font-weight:normal;font-stretch:normal;font-size:15.82559967px;line-height:1.25;font-family:Barlow;-inkscape-font-specification:Barlow;text-align:center;letter-spacing:0px;word-spacing:0px;text-anchor:middle;fill:#000000;fill-opacity:1;stroke:none;stroke-width:0.26458299"
       xml:space="preserve"><tspan
         style="font-style:normal;font-variant:normal;font-weight:bold;font-stretch:normal;font-family:Barlow;-inkscape-font-specification:'Barlow Bold';stroke-width:0.26458299"
         y="59.13633"
         x="102.49416"
         id="tspan1264"
         sodipodi:role="line">pen</tspan></text>
    <text
       xml:space="preserve"
       style="font-style:normal;font-variant:normal;font-weight:normal;font-stretch:normal;font-size:15.82559967px;line-height:1.25;font-family:Barlow;-inkscape-font-specification:Barlow;text-align:center;letter-spacing:0px;word-spacing:0px;text-anchor:middle;fill:#000000;fill-opacity:1;stroke:none;stroke-width:0.26458299"
       x="105.30051"
       y="87.199623"
       id="text1270"><tspan
         sodipodi:role="line"
         id="tspan1268"
         x="105.30051"
         y="87.199623"
         style="font-style:normal;font-variant:normal;font-weight:bold;font-stretch:normal;font-family:Barlow;-inkscape-font-specification:'Barlow Bold';stroke-width:0.26458299">obot</tspan></text>
    <text
       id="text1274"
       y="114.4611"
       x="117.86214"
       style="font-style:normal;font-variant:normal;font-weight:normal;font-stretch:normal;font-size:15.82559967px;line-height:1.25;font-family:Barlow;-inkscape-font-specification:Barlow;text-align:center;letter-spacing:0px;word-spacing:0px;text-anchor:middle;fill:#000000;fill-opacity:1;stroke:none;stroke-width:0.26458299"
       xml:space="preserve"><tspan
         style="font-style:normal;font-variant:normal;font-weight:bold;font-stretch:normal;font-family:Barlow;-inkscape-font-specification:'Barlow Bold';stroke-width:0.26458299"
         y="114.4611"
         x="117.86214"
         id="tspan1272"
         sodipodi:role="line">atabase</tspan></text>
    <g
       id="g1410"
       transform="matrix(-1,0,0,1,451.92722,-179.60512)">
      <path
         inkscape:connector-curvature="0"
         id="path1335"
         d="m 368.47801,357.20587 c -0.0201,-2.17361 0.51103,-3.8391 1.94491,-6.09859 4.95502,-7.80796 18.56546,-13.74844 34.14659,-14.9038 19.26916,-1.42884 34.92188,5.19848 35.32631,14.95714 0.40759,9.83451 -15.47481,19.33666 -35.09838,20.99862 -8.05357,0.68208 -16.64075,-0.10465 -22.74531,-2.08392 -1.08527,-0.35173 -2.1141,-0.76905 -2.28635,-0.92713 -0.71196,-0.65329 -0.30204,-0.94188 8.20839,-5.77875 4.49193,-2.55295 8.51572,-4.76557 8.94173,-4.91689 0.60757,-0.21574 1.062,-0.22932 2.10697,-0.0624 2.4721,0.3947 4.27189,0.46087 6.04939,0.22263 4.80643,-0.6442 8.17933,-2.90033 7.95921,-5.32424 -0.0779,-0.85975 -0.24155,-1.12347 -1.14705,-1.84996 -2.3278,-1.86769 -6.89336,-2.28806 -11.21852,-1.03298 -3.1161,0.90421 -4.72083,2.17039 -5.55672,4.38432 -0.19949,0.5286 -0.48292,0.81064 -0.98065,0.9761 -1.07246,0.35658 -22.89443,3.85674 -23.90293,3.83395 -1.32665,-0.0301 -1.7309,-0.58353 -1.74759,-2.39403 z"
         style="fill:#000000;stroke:#ffffff;stroke-width:1" />
      <path
         style="fill:#000000;stroke:#ffffff;stroke-width:1"
         d="m 368.47801,437.11946 c -0.0201,-2.17361 0.51103,-3.8391 1.94491,-6.09859 4.95502,-7.80796 18.56546,-13.74844 34.14659,-14.9038 19.26916,-1.42884 34.92188,5.19848 35.32631,14.95714 0.40759,9.83451 -15.47481,19.33666 -35.09838,20.99862 -8.05357,0.68208 -16.64075,-0.10465 -22.74531,-2.08392 -1.08527,-0.35173 -2.1141,-0.76905 -2.28635,-0.92713 -0.71196,-0.65329 -0.30204,-0.94188 8.20839,-5.77875 4.49193,-2.55295 8.51572,-4.76557 8.94173,-4.91689 0.60757,-0.21574 1.062,-0.22932 2.10697,-0.0624 2.4721,0.3947 4.27189,0.46087 6.04939,0.22263 4.80643,-0.6442 8.17933,-2.90033 7.95921,-5.32424 -0.0779,-0.85975 -0.24155,-1.12347 -1.14705,-1.84996 -2.3278,-1.86769 -6.89336,-2.28806 -11.21852,-1.03298 -3.1161,0.90421 -4.72083,2.17039 -5.55672,4.38432 -0.19949,0.5286 -0.48292,0.81064 -0.98065,0.9761 -1.07246,0.35658 -22.89443,3.85674 -23.90293,3.83395 -1.32665,-0.0301 -1.7309,-0.58353 -1.74759,-2.39403 z"
         id="path1337"
         inkscape:connector-curvature="0" />
      <path
         inkscape:connector-curvature="0"
         id="path1339"
         d="m 368.47801,437.11946 c -0.0201,-2.17361 0.51103,-3.8391 1.94491,-6.09859 4.95502,-7.80796 18.56546,-13.74844 34.14659,-14.9038 19.26916,-1.42884 34.92188,5.19848 35.32631,14.95714 0.40759,9.83451 -15.47481,19.33666 -35.09838,20.99862 -8.05357,0.68208 -16.64075,-0.10465 -22.74531,-2.08392 -1.08527,-0.35173 -2.1141,-0.76905 -2.28635,-0.92713 -0.71196,-0.65329 -0.30204,-0.94188 8.20839,-5.77875 4.49193,-2.55295 8.51572,-4.76557 8.94173,-4.91689 0.60757,-0.21574 1.062,-0.22932 2.10697,-0.0624 2.4721,0.3947 4.27189,0.46087 6.04939,0.22263 4.80643,-0.6442 8.17933,-2.90033 7.95921,-5.32424 -0.0779,-0.85975 -0.24155,-1.12347 -1.14705,-1.84996 -2.3278,-1.86769 -6.89336,-2.28806 -11.21852,-1.03298 -3.1161,0.90421 -4.72083,2.17039 -5.55672,4.38432 -0.19949,0.5286 -0.48292,0.81064 -0.98065,0.9761 -1.07246,0.35658 -22.89443,3.85674 -23.90293,3.83395 -1.32665,-0.0301 -1.7309,-0.58353 -1.74759,-2.39403 z"
         style="fill:#000000;stroke:#ffffff;stroke-width:1" />
      <path
         transform="translate(456.09544,65.240818)"
         inkscape:original-d="m -21.916101,287.91283 v 78.57723"
         inkscape:path-effect="#path-effect1343"
         inkscape:connector-curvature="0"
         id="path1341"
         d="m -21.916101,287.91283 v 78.57723"
         style="fill:none;stroke:#000000;stroke-width:9.16499996;stroke-linecap:butt;stroke-linejoin:miter;stroke-miterlimit:4;stroke-dasharray:none;stroke-opacity:1" />
      <rect
         transform="matrix(0.98661743,-0.16305226,0,1,0,0)"
         ry="0.2362327"
         rx="3.9377878"
         y="418.49435"
         x="373.33521"
         height="81.714249"
         width="37.550179"
         id="rect1345"
         style="opacity:1;fill:url(#linearGradient1391);fill-opacity:1;stroke:none;stroke-width:9.22694683;stroke-linecap:round;stroke-miterlimit:4;stroke-dasharray:none;stroke-dashoffset:0;stroke-opacity:1" />
      <ellipse
         ry="6.1421132"
         rx="9.7328873"
         cy="433.82404"
         cx="403.93311"
         id="ellipse1347"
         style="opacity:1;fill:#333333;fill-opacity:1;stroke:none;stroke-width:9.16499996;stroke-linecap:round;stroke-miterlimit:4;stroke-dasharray:none;stroke-dashoffset:0;stroke-opacity:1" />
      <ellipse
         style="opacity:1;fill:url(#linearGradient1393);fill-opacity:1;stroke:none;stroke-width:9.16499996;stroke-linecap:round;stroke-miterlimit:4;stroke-dasharray:none;stroke-dashoffset:0;stroke-opacity:1"
         id="ellipse1349"
         cx="403.93311"
         cy="353.88208"
         rx="9.7328873"
         ry="6.1421132" />
      <rect
         style="opacity:1;fill:#000000;fill-opacity:1;stroke:none;stroke-width:9.73608398;stroke-linecap:round;stroke-miterlimit:4;stroke-dasharray:none;stroke-dashoffset:0;stroke-opacity:1"
         id="rect1351"
         width="20.054535"
         height="79.760803"
         x="428.92465"
         y="567.70605"
         rx="2.883786"
         ry="0.2362327"
         transform="matrix(0.88612739,-0.46344175,0,1,0,0)" />
      <rect
         transform="matrix(0.95625222,-0.29254348,0,1,0,0)"
         ry="0.2362327"
         rx="2.6713922"
         y="492.22577"
         x="413.39474"
         height="79.760803"
         width="41.362873"
         id="rect1353"
         style="opacity:1;fill:#000000;fill-opacity:1;stroke:none;stroke-width:9.37229919;stroke-linecap:round;stroke-miterlimit:4;stroke-dasharray:none;stroke-dashoffset:0;stroke-opacity:1" />
      <path
         style="fill:#000000;stroke:#e5e5e5;stroke-width:1.89999998;stroke-miterlimit:4;stroke-dasharray:none;stroke-opacity:1"
         d="m 369.97858,354.31085 c -0.0194,-2.0938 0.49273,-3.69813 1.87523,-5.87465 4.7775,-7.52124 17.90033,-13.24358 32.92324,-14.35652 18.57881,-1.37637 33.67074,5.00759 34.06068,14.4079 0.39299,9.47338 -14.9204,18.6266 -33.84092,20.22753 -7.76503,0.65704 -16.04457,-0.1008 -21.93042,-2.00739 -7.60641,-10.94945 2.17466,-8.06367 14.33125,-11.19597 0.58581,-0.20782 1.02395,-0.2209 2.03149,-0.0601 2.38353,0.3802 4.11884,0.44394 5.83266,0.21445 4.63423,-0.62054 7.88629,-2.79383 7.67406,-5.12873 -0.0751,-0.82818 -0.2329,-1.08221 -1.10596,-1.78202 -2.2444,-1.79911 -6.64639,-2.20404 -10.8166,-0.99505 -3.00446,0.871 -4.5517,2.09069 -5.35764,4.22332 -0.19234,0.50919 -0.46562,0.78087 -0.94552,0.94026 -1.03403,0.34348 -22.0742,3.71511 -23.04657,3.69316 -1.27912,-0.029 -1.66888,-0.5621 -1.68498,-2.30612 z"
         id="path1355"
         inkscape:connector-curvature="0"
         sodipodi:nodetypes="ccscscccccccccccc" />
      <path
         style="opacity:1;fill:#e4e4e4;fill-opacity:1;stroke:none;stroke-width:9.16499996;stroke-linecap:round;stroke-miterlimit:4;stroke-dasharray:none;stroke-dashoffset:0;stroke-opacity:1"
         d="m 379.80449,359.66756 1.15101,-0.14174 c 0.24303,1.22842 1.50059,3.83788 1.50059,3.96874 v 85.68594 c 0,0.13088 1.85395,1.72452 1.85395,1.72452 0,0 -3.99589,-0.58271 -5.99383,-0.87407 -0.007,-9.8e-4 -0.3631,-0.98518 -0.3631,-0.8543 0,0.19785 1.10738,-11.28671 0.60614,-23.63293 -0.50123,-12.34622 0.31578,-29.15193 0.58837,-38.94216 0.48098,-17.27463 -0.17668,-18.17919 -0.0878,-25.23311 0.002,-0.13086 0.73788,-1.70006 0.74464,-1.70089 z"
         id="path1357"
         inkscape:connector-curvature="0"
         sodipodi:nodetypes="scsscsszsss" />
      <path
         style="color:#000000;font-style:normal;font-variant:normal;font-weight:normal;font-stretch:normal;font-size:medium;line-height:normal;font-family:sans-serif;font-variant-ligatures:normal;font-variant-position:normal;font-variant-caps:normal;font-variant-numeric:normal;font-variant-alternates:normal;font-feature-settings:normal;text-indent:0;text-align:start;text-decoration:none;text-decoration-line:none;text-decoration-style:solid;text-decoration-color:#000000;letter-spacing:normal;word-spacing:normal;text-transform:none;writing-mode:lr-tb;direction:ltr;text-orientation:mixed;dominant-baseline:auto;baseline-shift:baseline;text-anchor:start;white-space:normal;shape-padding:0;clip-rule:nonzero;display:inline;overflow:visible;visibility:visible;isolation:auto;mix-blend-mode:normal;color-interpolation:sRGB;color-interpolation-filters:linearRGB;solid-color:#000000;solid-opacity:1;vector-effect:none;fill:#e6e6e6;fill-opacity:0.989276;fill-rule:nonzero;stroke:none;stroke-width:6.61457968;stroke-linecap:round;stroke-linejoin:round;stroke-miterlimit:4;stroke-dasharray:none;stroke-dashoffset:0;stroke-opacity:1;color-rendering:auto;image-rendering:auto;shape-rendering:auto;text-rendering:auto;enable-background:accumulate"
         d="m 400.49029,333.02969 c -11.45824,0.72446 -25.33314,2.98833 -31.23242,14.0586 -3.31221,14.52762 -0.17176,29.39005 -1.19702,44.13279 0.23656,16.14476 -2.49649,32.32895 0.27817,48.11436 3.57163,-0.47856 2.52446,-1.17129 2.62588,-3.75692 -1.86308,-10.5138 1.53081,-21.36878 -0.71875,-31.86914 0.5531,-9.96986 1.11162,-19.9151 0.0664,-29.8125 0.985,-7.88796 0.0931,-15.97169 0.89844,-23.77539 4.07146,-7.49441 13.77728,-9.34211 21.46197,-11.03542 13.82882,-1.49134 29.97556,-1.67632 41.2138,7.80691 5.94706,3.72339 1.86781,11.28189 -3.29687,13.43359 -15.04959,6.85385 -33.09903,8.25066 -48.64257,2.13867 -1.17445,4.1253 0.67804,6.28602 4.58398,6.70899 15.63174,4.56031 32.98084,2.61176 47.20116,-5.2461 5.38782,-0.32363 3.20715,6.73627 3.79102,9.93946 0.95391,6.59692 -2.99131,12.8494 -9.36328,14.83593 -14.35771,6.45601 -31.34863,6.18526 -46.07812,1.13477 -1.64623,4.70113 1.33605,6.41996 5.36309,7.00399 13.83263,3.64964 29.04602,2.57694 41.95136,-3.39266 2.30992,-2.8119 8.45421,-3.34478 8.01367,1.60742 0.32893,6.97218 1.21574,16.6053 -6.82422,19.7539 -14.75101,7.8248 -32.9701,7.74131 -48.5039,2.36329 -1.15695,4.04746 0.32903,6.4364 4.40234,6.75781 13.99801,3.99111 29.71471,2.99423 42.91601,-3.08789 2.31509,-2.90226 8.52799,-3.35846 7.99805,1.65234 0.27359,6.74098 1.19396,15.81918 -6.32422,19.26953 -13.13743,8.07892 -29.82437,7.36386 -44.39634,4.39198 -3.10486,-1.05404 -6.11064,-2.65231 -4.59584,2.51818 0.46919,3.16633 5.98318,2.5751 8.67697,3.64517 15.05304,2.24572 32.83919,2.34754 44.8367,-8.66666 8.27299,-9.12666 2.62894,-22.19718 4.24804,-33.14257 -0.59791,-21.17053 1.55771,-42.64517 -1.23437,-63.54493 -7.32359,-13.1028 -25.02912,-13.89817 -38.11914,-13.9375 z"
         id="path1359"
         inkscape:connector-curvature="0"
         sodipodi:nodetypes="cccccccccccccccccccccccccccccccccc" />
      <ellipse
         style="fill:#ff0000;stroke:none;stroke-width:6.61459017;stroke-linecap:round;stroke-linejoin:round;stroke-miterlimit:4;stroke-dasharray:none"
         id="ellipse1361"
         cx="387.45645"
         cy="380.99374"
         rx="2.2534454"
         ry="3.2304215" />
      <ellipse
         cy="408.31393"
         cx="387.45645"
         id="ellipse1363"
         style="fill:#00ff00;stroke:none;stroke-width:6.61459017;stroke-linecap:round;stroke-linejoin:round;stroke-miterlimit:4;stroke-dasharray:none"
         rx="2.2534454"
         ry="3.2304215" />
      <ellipse
         style="fill:#0000ff;stroke:none;stroke-width:6.61459017;stroke-linecap:round;stroke-linejoin:round;stroke-miterlimit:4;stroke-dasharray:none"
         id="ellipse1365"
         cx="387.45645"
         cy="435.63412"
         rx="2.2534454"
         ry="3.2304215" />
    </g>
    <text
       id="text1385"
       y="232.05971"
       x="114.12043"
       style="font-style:normal;font-variant:normal;font-weight:normal;font-stretch:normal;font-size:15.82559967px;line-height:1.25;font-family:Barlow;-inkscape-font-specification:Barlow;text-align:center;letter-spacing:0px;word-spacing:0px;text-anchor:middle;fill:#000000;fill-opacity:1;stroke:none;stroke-width:0.26458299"
       xml:space="preserve"><tspan
         style="font-style:normal;font-variant:normal;font-weight:bold;font-stretch:normal;font-family:Barlow;-inkscape-font-specification:'Barlow Bold';stroke-width:0.26458299"
         y="232.05971"
         x="114.12043"
         id="tspan1383"
         sodipodi:role="line">Robot</tspan></text>
    <text
       xml:space="preserve"
       style="font-style:normal;font-variant:normal;font-weight:normal;font-stretch:normal;font-size:15.82559967px;line-height:1.25;font-family:Barlow;-inkscape-font-specification:Barlow;text-align:center;letter-spacing:0px;word-spacing:0px;text-anchor:middle;fill:#000000;fill-opacity:1;stroke:none;stroke-width:0.26458299"
       x="126.68204"
       y="259.32117"
       id="text1389"><tspan
         sodipodi:role="line"
         id="tspan1387"
         x="126.68204"
         y="259.32117"
         style="font-style:normal;font-variant:normal;font-weight:bold;font-stretch:normal;font-family:Barlow;-inkscape-font-specification:'Barlow Bold';stroke-width:0.26458299">Database</tspan></text>
    <text
       xml:space="preserve"
       style="font-style:normal;font-variant:normal;font-weight:normal;font-stretch:normal;font-size:15.82559967px;line-height:1.25;font-family:Barlow;-inkscape-font-specification:Barlow;text-align:center;letter-spacing:0px;word-spacing:0px;text-anchor:middle;fill:#000000;fill-opacity:1;stroke:none;stroke-width:0.26458299"
       x="111.31406"
       y="203.99641"
       id="text1381"><tspan
         sodipodi:role="line"
         id="tspan1379"
         x="111.31406"
         y="203.99641"
         style="font-style:normal;font-variant:normal;font-weight:bold;font-stretch:normal;font-family:Barlow;-inkscape-font-specification:'Barlow Bold';stroke-width:0.26458299">Open</tspan></text>
  </g>
</svg>
