<?xml version="1.0" encoding="UTF-8" standalone="no"?>
<svg
   xmlns:dc="http://purl.org/dc/elements/1.1/"
   xmlns:cc="http://creativecommons.org/ns#"
   xmlns:rdf="http://www.w3.org/1999/02/22-rdf-syntax-ns#"
   xmlns:svg="http://www.w3.org/2000/svg"
   xmlns="http://www.w3.org/2000/svg"
   xmlns:sodipodi="http://sodipodi.sourceforge.net/DTD/sodipodi-0.dtd"
   xmlns:inkscape="http://www.inkscape.org/namespaces/inkscape"
   width="210mm"
   height="297mm"
   viewBox="0 0 210 297"
   version="1.1"
   id="svg8"
   inkscape:version="0.92.5 (2060ec1f9f, 2020-04-08)"
   sodipodi:docname="ord05.svg"
   inkscape:export-filename="/home/norro/dev/github/malzahno/OpenRobotDatabase/docs/img/logo/ord05.png"
   inkscape:export-xdpi="172"
   inkscape:export-ydpi="172">
  <defs
     id="defs2" />
  <sodipodi:namedview
     id="base"
     pagecolor="#ffffff"
     bordercolor="#666666"
     borderopacity="1.0"
     inkscape:pageopacity="0.0"
     inkscape:pageshadow="2"
     inkscape:zoom="0.70710678"
     inkscape:cx="135.26353"
     inkscape:cy="341.97729"
     inkscape:document-units="mm"
     inkscape:current-layer="layer1"
     inkscape:document-rotation="0"
     showgrid="false"
     inkscape:window-width="1920"
     inkscape:window-height="1043"
     inkscape:window-x="0"
     inkscape:window-y="0"
     inkscape:window-maximized="1" />
  <metadata
     id="metadata5">
    <rdf:RDF>
      <cc:Work
         rdf:about="">
        <dc:format>image/svg+xml</dc:format>
        <dc:type
           rdf:resource="http://purl.org/dc/dcmitype/StillImage" />
        <dc:title />
      </cc:Work>
    </rdf:RDF>
  </metadata>
  <g
     inkscape:label="Ebene 1"
     inkscape:groupmode="layer"
     id="layer1">
    <path
       style="fill:#d45500;stroke:#000000;stroke-width:0.26458332px;stroke-linecap:butt;stroke-linejoin:miter;stroke-opacity:0.20999999;fill-opacity:0.89999998"
       d="m 59.77483,134.98121 c 0,0 -0.374179,17.3057 -0.374179,18.1476 0,0.8419 0.561266,22.3571 0.561266,22.3571 l -0.748353,17.58633 c 0,0 5.799749,6.45456 6.173925,6.54811 0.374176,0.0935 30.495454,6.08038 30.495454,6.08038 0,0 18.428227,-3.08697 19.457217,-3.18051 1.02899,-0.0935 14.31229,-5.70621 14.87355,-6.36102 0.56127,-0.6548 0.93544,-14.49937 1.02899,-16.27671 0.0935,-1.77734 -0.0936,-40.59824 -0.0936,-40.59824 0,0 -56.68786,0.46772 -58.932924,0.46772 -2.245064,0 -12.441396,-4.77076 -12.441396,-4.77076 z"
       id="path850"
       inkscape:connector-curvature="0" />
    <path
       inkscape:connector-curvature="0"
       d="m 95.249999,119.19531 c -10.16136,0 -19.36019,1.3419 -26.302787,3.6561 -3.471299,1.1571 -6.388796,2.53728 -8.65632,4.32429 -2.267524,1.78701 -4.066418,4.24818 -4.066418,7.23263 0,0.0207 0.0019,0.0408 0.0021,0.0615 h -0.0062 v 58.28843 h 0.0186 c -0.0068,0.12861 -0.01447,0.25695 -0.01447,0.38757 0,2.98447 1.798895,5.44512 4.066419,7.23212 2.267524,1.78701 5.185021,3.16718 8.65632,4.32428 6.942597,2.31421 16.141427,3.65611 26.302787,3.65611 10.16136,0 19.36019,-1.3419 26.30279,-3.65611 3.47129,-1.1571 6.38879,-2.53727 8.65632,-4.32428 2.26753,-1.787 4.06642,-4.24765 4.06642,-7.23212 0,-0.13062 -0.008,-0.25896 -0.0145,-0.38757 h -0.007 v -18.63349 c 0.014,-0.18393 0.0212,-0.36997 0.0212,-0.55811 0,-0.13062 -0.008,-0.25896 -0.0145,-0.38757 h -0.007 V 154.5456 c 0.014,-0.18393 0.0212,-0.36997 0.0212,-0.5581 0,-0.13062 -0.008,-0.25897 -0.0145,-0.38757 h -0.007 v -18.63349 c 0.014,-0.18394 0.0212,-0.36997 0.0212,-0.55811 0,-2.98445 -1.79889,-5.44562 -4.06642,-7.23263 -2.26752,-1.78701 -5.18502,-3.16719 -8.65632,-4.32429 -6.94265,-2.3142 -16.14148,-3.6561 -26.302843,-3.6561 z m 0,6.61303 c 9.565561,0 18.225871,1.32365 24.210921,3.31866 2.99252,0.99751 5.30697,2.18237 6.65438,3.24425 1.34742,1.06188 1.54667,1.73372 1.54667,2.03708 0,0.0178 -0.004,0.0411 -0.005,0.0615 h -0.10903 v 0.38757 c -0.16401,0.36694 -0.54967,0.89229 -1.43247,1.58802 -1.34741,1.06188 -3.66186,2.24674 -6.65438,3.24424 -5.98505,1.99502 -14.64536,3.31815 -24.210923,3.31815 -9.565563,0 -18.225879,-1.32313 -24.210925,-3.31815 -2.992523,-0.9975 -5.306963,-2.18236 -6.654374,-3.24424 -0.9348,-0.73671 -1.311334,-1.28159 -1.457794,-1.65003 v -0.32556 H 62.8432 c -0.0016,-0.0204 -0.0052,-0.0437 -0.0052,-0.0615 0,-0.30336 0.199263,-0.9752 1.546675,-2.03708 1.347411,-1.06188 3.661851,-2.24674 6.654374,-3.24425 5.985046,-1.99501 14.645362,-3.31866 24.210925,-3.31866 z m -32.323093,17.57619 c 1.75758,0.98656 3.771895,1.83073 6.020306,2.5802 6.942597,2.3142 16.141427,3.65611 26.302787,3.65611 10.161361,0 19.360191,-1.34191 26.302791,-3.65611 2.23754,-0.74584 4.24341,-1.58532 5.99498,-2.56573 v 11.03705 c -0.16376,0.36696 -0.54909,0.89235 -1.43247,1.58853 -1.34741,1.06188 -3.66186,2.24675 -6.65438,3.24425 -5.98505,1.99502 -14.64536,3.31814 -24.210921,3.31814 -9.565563,0 -18.225878,-1.32312 -24.210925,-3.31814 -2.992522,-0.9975 -5.306963,-2.18237 -6.654374,-3.24425 -0.935445,-0.73721 -1.311617,-1.2821 -1.457794,-1.65054 z m 0,19.57968 c 1.757516,0.98649 3.772051,1.83027 6.020306,2.57969 6.942597,2.3142 16.141427,3.65611 26.302787,3.65611 10.161361,0 19.360191,-1.34191 26.302791,-3.65611 2.23748,-0.74583 4.24342,-1.58534 5.99498,-2.56574 v 11.03706 c -0.16376,0.36696 -0.54909,0.89235 -1.43247,1.58853 -1.34741,1.06188 -3.66186,2.24675 -6.65438,3.24425 -5.98505,1.99502 -14.64536,3.31814 -24.210921,3.31814 -9.565563,0 -18.225878,-1.32312 -24.210925,-3.31814 -2.992522,-0.9975 -5.306963,-2.18237 -6.654374,-3.24425 -0.935006,-0.73687 -1.311463,-1.28159 -1.457794,-1.65003 z m 0,19.57917 c 1.757516,0.98649 3.772051,1.83027 6.020306,2.57968 6.942597,2.31421 16.141427,3.65611 26.302787,3.65611 10.161361,0 19.360191,-1.3419 26.302791,-3.65611 2.23748,-0.74582 4.24342,-1.58533 5.99498,-2.56573 v 10.20093 h 0.0253 c 0.0646,0.16263 0.0889,0.29468 0.0889,0.38757 0,0.30338 -0.19926,0.9752 -1.54667,2.03709 -1.34741,1.06187 -3.66186,2.24674 -6.65438,3.24424 -5.98505,1.99502 -14.64536,3.31815 -24.210924,3.31815 -9.565563,0 -18.225878,-1.32313 -24.210925,-3.31815 -2.992522,-0.9975 -5.306962,-2.18237 -6.654374,-3.24424 -1.347412,-1.06189 -1.546675,-1.73371 -1.546675,-2.03709 0,-0.0929 0.02424,-0.22494 0.08888,-0.38757 z"
       style="color:#000000;font-style:normal;font-variant:normal;font-weight:normal;font-stretch:normal;font-size:medium;line-height:normal;font-family:sans-serif;font-variant-ligatures:normal;font-variant-position:normal;font-variant-caps:normal;font-variant-numeric:normal;font-variant-alternates:normal;font-feature-settings:normal;text-indent:0;text-align:start;text-decoration:none;text-decoration-line:none;text-decoration-style:solid;text-decoration-color:#000000;letter-spacing:normal;word-spacing:normal;text-transform:none;writing-mode:lr-tb;direction:ltr;text-orientation:mixed;dominant-baseline:auto;baseline-shift:baseline;text-anchor:start;white-space:normal;shape-padding:0;clip-rule:nonzero;display:inline;overflow:visible;visibility:visible;isolation:auto;mix-blend-mode:normal;color-interpolation:sRGB;color-interpolation-filters:linearRGB;solid-color:#000000;solid-opacity:1;vector-effect:none;fill:#aa4400;fill-opacity:1;fill-rule:nonzero;stroke:none;stroke-width:6.61458015;stroke-linecap:round;stroke-linejoin:round;stroke-miterlimit:4;stroke-dasharray:none;stroke-dashoffset:0;stroke-opacity:1;color-rendering:auto;image-rendering:auto;shape-rendering:auto;text-rendering:auto;enable-background:accumulate"
       id="path983" />
    <ellipse
       style="opacity:1;fill:#aa4400;fill-opacity:1;stroke:#aa4400;stroke-width:5;stroke-linecap:round;stroke-linejoin:round;stroke-miterlimit:4;stroke-dasharray:none;stroke-opacity:1"
       id="path828"
       cx="94.737061"
       cy="133.95161"
       rx="34.120327"
       ry="10.008643" />
    <g
       id="g855"
       transform="translate(0,3.571875)">
      <rect
         style="opacity:1;fill:#aa4400;fill-opacity:1;stroke:none;stroke-width:4.17707014;stroke-linecap:round;stroke-linejoin:round;stroke-miterlimit:4;stroke-dasharray:none;stroke-opacity:1"
         id="rect841"
         width="3.96875"
         height="25.324404"
         x="91.28125"
         y="100.48393" />
      <rect
         y="89.522636"
         x="95.25"
         height="36.285713"
         width="3.96875"
         id="rect843"
         style="opacity:1;fill:#ffffff;fill-opacity:0.99215686;stroke:none;stroke-width:5;stroke-linecap:round;stroke-linejoin:round;stroke-miterlimit:4;stroke-dasharray:none;stroke-opacity:1" />
      <ellipse
         style="opacity:1;fill:#aa4400;fill-opacity:1;stroke:none;stroke-width:3.85604382;stroke-linecap:round;stroke-linejoin:round;stroke-miterlimit:4;stroke-dasharray:none;stroke-opacity:1"
         id="ellipse845"
         cx="93.512756"
         cy="99.349991"
         rx="6.6685762"
         ry="5.6060796" />
    </g>
    <g
       transform="translate(-4.7772767,59.887599)"
       id="g851"
       style="fill:#aa4400;fill-opacity:1">
      <ellipse
         style="opacity:1;fill:#aa4400;fill-opacity:1;stroke:#f9f9f9;stroke-width:5;stroke-linecap:round;stroke-linejoin:round;stroke-miterlimit:4;stroke-dasharray:none;stroke-opacity:1"
         id="ellipse847"
         cx="89.391373"
         cy="103.2872"
         rx="10.396832"
         ry="6.4255953" />
      <ellipse
         ry="6.4255953"
         rx="10.396832"
         cy="103.2872"
         cx="110.65253"
         id="ellipse849"
         style="opacity:1;fill:#aa4400;fill-opacity:1;stroke:#f9f9f9;stroke-width:5;stroke-linecap:round;stroke-linejoin:round;stroke-miterlimit:4;stroke-dasharray:none;stroke-opacity:1" />
    </g>
  </g>
</svg>
