<?xml version="1.0" encoding="UTF-8" standalone="no"?>
<svg
   xmlns:dc="http://purl.org/dc/elements/1.1/"
   xmlns:cc="http://creativecommons.org/ns#"
   xmlns:rdf="http://www.w3.org/1999/02/22-rdf-syntax-ns#"
   xmlns:svg="http://www.w3.org/2000/svg"
   xmlns="http://www.w3.org/2000/svg"
   xmlns:sodipodi="http://sodipodi.sourceforge.net/DTD/sodipodi-0.dtd"
   xmlns:inkscape="http://www.inkscape.org/namespaces/inkscape"
   width="210mm"
   height="297mm"
   viewBox="0 0 210 297"
   version="1.1"
   id="svg8"
   inkscape:version="0.92.5 (2060ec1f9f, 2020-04-08)"
   sodipodi:docname="ord04.svg"
   inkscape:export-filename="/home/norro/dev/github/malzahno/OpenRobotDatabase/docs/img/logo/ord04.png"
   inkscape:export-xdpi="172"
   inkscape:export-ydpi="172">
  <defs
     id="defs2" />
  <sodipodi:namedview
     id="base"
     pagecolor="#ffffff"
     bordercolor="#666666"
     borderopacity="1.0"
     inkscape:pageopacity="0.0"
     inkscape:pageshadow="2"
     inkscape:zoom="0.70710678"
     inkscape:cx="69.966493"
     inkscape:cy="452.52568"
     inkscape:document-units="mm"
     inkscape:current-layer="layer1"
     inkscape:document-rotation="0"
     showgrid="false"
     inkscape:window-width="1872"
     inkscape:window-height="1016"
     inkscape:window-x="1968"
     inkscape:window-y="27"
     inkscape:window-maximized="1" />
  <metadata
     id="metadata5">
    <rdf:RDF>
      <cc:Work
         rdf:about="">
        <dc:format>image/svg+xml</dc:format>
        <dc:type
           rdf:resource="http://purl.org/dc/dcmitype/StillImage" />
        <dc:title></dc:title>
      </cc:Work>
    </rdf:RDF>
  </metadata>
  <g
     inkscape:label="Ebene 1"
     inkscape:groupmode="layer"
     id="layer1">
    <g
       inkscape:export-ydpi="172"
       inkscape:export-xdpi="172"
       id="g1018">
      <path
         sodipodi:nodetypes="ssssccccssssssscccscccscccsssscc"
         id="path883"
         style="color:#000000;font-style:normal;font-variant:normal;font-weight:normal;font-stretch:normal;font-size:medium;line-height:normal;font-family:sans-serif;font-variant-ligatures:normal;font-variant-position:normal;font-variant-caps:normal;font-variant-numeric:normal;font-variant-alternates:normal;font-variant-east-asian:normal;font-feature-settings:normal;font-variation-settings:normal;text-indent:0;text-align:start;text-decoration:none;text-decoration-line:none;text-decoration-style:solid;text-decoration-color:#000000;letter-spacing:normal;word-spacing:normal;text-transform:none;writing-mode:lr-tb;direction:ltr;text-orientation:mixed;dominant-baseline:auto;baseline-shift:baseline;text-anchor:start;white-space:normal;shape-padding:0;shape-margin:0;inline-size:0;clip-rule:nonzero;display:inline;overflow:visible;visibility:visible;isolation:auto;mix-blend-mode:normal;color-interpolation:sRGB;color-interpolation-filters:linearRGB;solid-color:#000000;solid-opacity:1;vector-effect:none;fill:#0069d7;fill-opacity:0.238606;fill-rule:nonzero;stroke:none;stroke-width:6.61458;stroke-linecap:round;stroke-linejoin:round;stroke-miterlimit:4;stroke-dasharray:none;stroke-dashoffset:0;stroke-opacity:1;color-rendering:auto;image-rendering:auto;shape-rendering:auto;text-rendering:auto;enable-background:accumulate;stop-color:#000000"
         d="m 95.249999,119.19531 c -10.16136,0 -19.360189,1.3419 -26.302787,3.6561 -3.471299,1.1571 -6.388796,2.53728 -8.65632,4.32429 -2.267524,1.78701 -4.066418,4.24818 -4.066418,7.23263 0,0.0207 0.0019,0.0408 0.0021,0.0615 h -0.0062 v 58.28843 h 0.0186 c -0.0068,0.12861 -0.01447,0.25695 -0.01447,0.38757 0,2.98447 1.798894,5.44512 4.066418,7.23212 2.267524,1.78701 5.185021,3.16718 8.65632,4.32428 6.942598,2.31421 16.141427,3.65611 26.302787,3.65611 10.161361,0 19.360191,-1.3419 26.302791,-3.65611 3.47129,-1.1571 6.38879,-2.53727 8.65632,-4.32428 2.26753,-1.787 4.06642,-4.24765 4.06642,-7.23212 0,-0.13062 -0.008,-0.25896 -0.0145,-0.38757 h -0.007 v -18.63349 c 0.014,-0.18393 0.0212,-0.36997 0.0212,-0.55811 0,-0.13062 -0.008,-0.25896 -0.0145,-0.38757 h -0.007 V 154.5456 c 0.014,-0.18393 0.0212,-0.36997 0.0212,-0.5581 0,-0.13062 -0.008,-0.25897 -0.0145,-0.38757 h -0.007 v -18.63349 c 0.014,-0.18394 0.0212,-0.36997 0.0212,-0.55811 0,-2.98445 -1.79889,-5.44562 -4.06642,-7.23263 -2.26752,-1.78701 -5.18502,-3.16719 -8.65632,-4.32429 -6.94265,-2.3142 -16.14148,-3.6561 -26.302844,-3.6561 z m 0,6.61303 c -63.499999,-83.872226 -31.749999,-41.936115 0,0 z" />
      <path
         id="path983"
         style="color:#000000;font-style:normal;font-variant:normal;font-weight:normal;font-stretch:normal;font-size:medium;line-height:normal;font-family:sans-serif;font-variant-ligatures:normal;font-variant-position:normal;font-variant-caps:normal;font-variant-numeric:normal;font-variant-alternates:normal;font-variant-east-asian:normal;font-feature-settings:normal;font-variation-settings:normal;text-indent:0;text-align:start;text-decoration:none;text-decoration-line:none;text-decoration-style:solid;text-decoration-color:#000000;letter-spacing:normal;word-spacing:normal;text-transform:none;writing-mode:lr-tb;direction:ltr;text-orientation:mixed;dominant-baseline:auto;baseline-shift:baseline;text-anchor:start;white-space:normal;shape-padding:0;shape-margin:0;inline-size:0;clip-rule:nonzero;display:inline;overflow:visible;visibility:visible;isolation:auto;mix-blend-mode:normal;color-interpolation:sRGB;color-interpolation-filters:linearRGB;solid-color:#000000;solid-opacity:1;vector-effect:none;fill:#123ba0;fill-opacity:0.989276;fill-rule:nonzero;stroke:none;stroke-width:6.61458;stroke-linecap:round;stroke-linejoin:round;stroke-miterlimit:4;stroke-dasharray:none;stroke-dashoffset:0;stroke-opacity:1;color-rendering:auto;image-rendering:auto;shape-rendering:auto;text-rendering:auto;enable-background:accumulate;stop-color:#000000"
         d="m 95.249999,119.19531 c -10.16136,0 -19.36019,1.3419 -26.302787,3.6561 -3.471299,1.1571 -6.388796,2.53728 -8.65632,4.32429 -2.267524,1.78701 -4.066418,4.24818 -4.066418,7.23263 0,0.0207 0.0019,0.0408 0.0021,0.0615 h -0.0062 v 58.28843 h 0.0186 c -0.0068,0.12861 -0.01447,0.25695 -0.01447,0.38757 0,2.98447 1.798895,5.44512 4.066419,7.23212 2.267524,1.78701 5.185021,3.16718 8.65632,4.32428 6.942597,2.31421 16.141427,3.65611 26.302787,3.65611 10.16136,0 19.36019,-1.3419 26.30279,-3.65611 3.47129,-1.1571 6.38879,-2.53727 8.65632,-4.32428 2.26753,-1.787 4.06642,-4.24765 4.06642,-7.23212 0,-0.13062 -0.008,-0.25896 -0.0145,-0.38757 h -0.007 v -18.63349 c 0.014,-0.18393 0.0212,-0.36997 0.0212,-0.55811 0,-0.13062 -0.008,-0.25896 -0.0145,-0.38757 h -0.007 V 154.5456 c 0.014,-0.18393 0.0212,-0.36997 0.0212,-0.5581 0,-0.13062 -0.008,-0.25897 -0.0145,-0.38757 h -0.007 v -18.63349 c 0.014,-0.18394 0.0212,-0.36997 0.0212,-0.55811 0,-2.98445 -1.79889,-5.44562 -4.06642,-7.23263 -2.26752,-1.78701 -5.18502,-3.16719 -8.65632,-4.32429 -6.94265,-2.3142 -16.14148,-3.6561 -26.302843,-3.6561 z m 0,6.61303 c 9.565561,0 18.225871,1.32365 24.210921,3.31866 2.99252,0.99751 5.30697,2.18237 6.65438,3.24425 1.34742,1.06188 1.54667,1.73372 1.54667,2.03708 0,0.0178 -0.004,0.0411 -0.005,0.0615 h -0.10903 v 0.38757 c -0.16401,0.36694 -0.54967,0.89229 -1.43247,1.58802 -1.34741,1.06188 -3.66186,2.24674 -6.65438,3.24424 -5.98505,1.99502 -14.64536,3.31815 -24.210923,3.31815 -9.565563,0 -18.225879,-1.32313 -24.210925,-3.31815 -2.992523,-0.9975 -5.306963,-2.18236 -6.654374,-3.24424 -0.9348,-0.73671 -1.311334,-1.28159 -1.457794,-1.65003 v -0.32556 H 62.8432 c -0.0016,-0.0204 -0.0052,-0.0437 -0.0052,-0.0615 0,-0.30336 0.199263,-0.9752 1.546675,-2.03708 1.347411,-1.06188 3.661851,-2.24674 6.654374,-3.24425 5.985046,-1.99501 14.645362,-3.31866 24.210925,-3.31866 z m -32.323093,17.57619 c 1.75758,0.98656 3.771895,1.83073 6.020306,2.5802 6.942597,2.3142 16.141427,3.65611 26.302787,3.65611 10.161361,0 19.360191,-1.34191 26.302791,-3.65611 2.23754,-0.74584 4.24341,-1.58532 5.99498,-2.56573 v 11.03705 c -0.16376,0.36696 -0.54909,0.89235 -1.43247,1.58853 -1.34741,1.06188 -3.66186,2.24675 -6.65438,3.24425 -5.98505,1.99502 -14.64536,3.31814 -24.210921,3.31814 -9.565563,0 -18.225878,-1.32312 -24.210925,-3.31814 -2.992522,-0.9975 -5.306963,-2.18237 -6.654374,-3.24425 -0.935445,-0.73721 -1.311617,-1.2821 -1.457794,-1.65054 z m 0,19.57968 c 1.757516,0.98649 3.772051,1.83027 6.020306,2.57969 6.942597,2.3142 16.141427,3.65611 26.302787,3.65611 10.161361,0 19.360191,-1.34191 26.302791,-3.65611 2.23748,-0.74583 4.24342,-1.58534 5.99498,-2.56574 v 11.03706 c -0.16376,0.36696 -0.54909,0.89235 -1.43247,1.58853 -1.34741,1.06188 -3.66186,2.24675 -6.65438,3.24425 -5.98505,1.99502 -14.64536,3.31814 -24.210921,3.31814 -9.565563,0 -18.225878,-1.32312 -24.210925,-3.31814 -2.992522,-0.9975 -5.306963,-2.18237 -6.654374,-3.24425 -0.935006,-0.73687 -1.311463,-1.28159 -1.457794,-1.65003 z m 0,19.57917 c 1.757516,0.98649 3.772051,1.83027 6.020306,2.57968 6.942597,2.31421 16.141427,3.65611 26.302787,3.65611 10.161361,0 19.360191,-1.3419 26.302791,-3.65611 2.23748,-0.74582 4.24342,-1.58533 5.99498,-2.56573 v 10.20093 h 0.0253 c 0.0646,0.16263 0.0889,0.29468 0.0889,0.38757 0,0.30338 -0.19926,0.9752 -1.54667,2.03709 -1.34741,1.06187 -3.66186,2.24674 -6.65438,3.24424 -5.98505,1.99502 -14.64536,3.31815 -24.210924,3.31815 -9.565563,0 -18.225878,-1.32313 -24.210925,-3.31815 -2.992522,-0.9975 -5.306962,-2.18237 -6.654374,-3.24424 -1.347412,-1.06189 -1.546675,-1.73371 -1.546675,-2.03709 0,-0.0929 0.02424,-0.22494 0.08888,-0.38757 z" />
      <circle
         style="fill:#000080;stroke:none;stroke-width:6.61459;stroke-linecap:round;stroke-linejoin:round;stroke-miterlimit:4;stroke-dasharray:none"
         id="circle985"
         cx="69.519272"
         cy="152.26772"
         r="2.3151042" />
      <circle
         r="2.3151042"
         cy="171.84692"
         cx="69.519272"
         id="circle1049"
         style="fill:#000080;stroke:none;stroke-width:6.61459;stroke-linecap:round;stroke-linejoin:round;stroke-miterlimit:4;stroke-dasharray:none" />
      <circle
         style="fill:#000080;stroke:none;stroke-width:6.61459;stroke-linecap:round;stroke-linejoin:round;stroke-miterlimit:4;stroke-dasharray:none"
         id="circle1051"
         cx="69.519272"
         cy="191.42613"
         r="2.3151042" />
    </g>
    <path
       style="fill:#113a9f;stroke:none;stroke-width:0.26458332px;stroke-linecap:butt;stroke-linejoin:miter;stroke-opacity:1;fill-opacity:0.99215686"
       d="m 127.54794,134.8574 -31.768775,-0.31157 23.018755,7.40834 v 61.38333 l 15.45614,-10.57924 -5.3e-4,-57.79182 z"
       id="path841"
       inkscape:connector-curvature="0" />
    <path
       d="m 124.77613,153.21041 0.35922,2.01575 c -1.01732,0.47002 -1.99111,1.07753 -2.89283,1.82934 -0.29279,2.41769 -1.52498,6.85765 2.83006,5.61329 0.34752,-0.47852 0.75303,-0.9121 1.20727,-1.29081 3.03423,-2.53013 7.54505,-2.12137 10.07504,0.91297 2.52981,3.03425 2.12093,7.54481 -0.91327,10.07468 -3.03409,2.53001 -7.54468,2.12143 -10.07475,-0.91261 -0.27243,-0.32697 -0.51512,-0.67759 -0.72522,-1.04771 -3.08531,-2.34565 -3.2189,1.49296 -4.06579,5.04256 0.67408,0.80848 1.42679,1.51153 2.23532,2.114 l -1.78742,1.41081 c 0.48982,-0.19185 5.82647,2.83123 5.82647,2.83123 l 1.09424,-1.93722 c 1.40252,0.29102 2.84654,0.3508 4.27258,0.17476 0.26399,0.88918 0.57578,2.0057 0.57578,2.0057 l 5.71789,-2.49369 -0.84226,-1.48794 c 0.44642,-0.28762 0.88149,-0.60229 1.29982,-0.95092 0.74854,-0.62418 1.40637,-1.31645 1.97846,-2.05709 l 1.69541,1.26775 2.8632,-5.52771 -2.23706,-0.52895 c 0.34712,-1.38547 0.46496,-2.82022 0.35007,-4.24462 l 2.42858,-0.55145 -1.83332,-5.18563 -1.93547,0.94557 c -0.44154,-0.87885 -0.98619,-1.72228 -1.6432,-2.51019 -0.61543,-0.73811 -1.29669,-1.3885 -2.02561,-1.95504 l 1.47053,-1.69761 -5.09098,-2.46933 -0.73513,1.9453 c -1.29684,-0.37604 -2.64407,-0.54584 -3.99087,-0.51139 l -0.31154,-1.89039 z"
       style="fill:#d45500;fill-opacity:0.99215698;stroke:none;stroke-width:5.88145065;stroke-linecap:round;stroke-linejoin:miter;stroke-miterlimit:4;stroke-dasharray:none;stroke-opacity:0.99215698"
       id="path1157"
       inkscape:connector-curvature="0"
       sodipodi:nodetypes="ccccccccccccccccccccccccccccccccccc" />
    <path
       inkscape:export-ydpi="172"
       inkscape:export-xdpi="172"
       d="m 140.05557,187.81177 c -0.46728,-0.38285 -8.84096,0.87807 -8.84096,0.87807 l -8.00795,-6.68912 -2.46678,2.821 -2.28029,2.97379 8.00794,6.6891 c 0,0 0.41079,8.45812 0.87806,8.84096 l 12.61573,10.33621 -3.50231,-9.28269 -5.68913,-4.66116 3.21123,-3.91943 3.2112,-3.9194 5.68914,4.66118 9.79024,1.60802 z"
       style="fill:#d45500;fill-opacity:0.99215698;stroke:none;stroke-width:0.26458299px;stroke-linecap:butt;stroke-linejoin:miter;stroke-opacity:1"
       id="path1044"
       inkscape:connector-curvature="0"
       sodipodi:nodetypes="ccccccccccccccc" />
    <g
       inkscape:export-ydpi="172"
       inkscape:export-xdpi="172"
       transform="rotate(-102.31631,130.9015,139.22252)"
       id="g1176"
       style="fill:none;stroke:#d45500">
      <path
         style="fill:none;fill-opacity:0.99215698;stroke:#d45500;stroke-width:6.61458015;stroke-linecap:butt;stroke-linejoin:miter;stroke-miterlimit:4;stroke-dasharray:none;stroke-opacity:0.99215698"
         d="m 148.23282,157.22864 -18.45469,-9.12812 -3.41766,-20.72619"
         id="path1106"
         inkscape:connector-curvature="0"
         sodipodi:nodetypes="ccc" />
      <circle
         style="opacity:1;fill:none;fill-opacity:0.99215698;stroke:#d45500;stroke-width:6.61458015;stroke-linecap:round;stroke-linejoin:miter;stroke-miterlimit:4;stroke-dasharray:none;stroke-opacity:0.99215698"
         id="path1108"
         cx="129.77812"
         cy="148.10052"
         r="2.645833" />
    </g>
    <rect
       style="opacity:1;fill:#113a9f;fill-opacity:0.99215686;stroke:none;stroke-width:4.94663668;stroke-linecap:round;stroke-linejoin:round;stroke-miterlimit:4;stroke-dasharray:none;stroke-opacity:1"
       id="rect843"
       width="5.9531217"
       height="60.986454"
       x="118.79792"
       y="142.35104" />
    <path
       style="fill:#113a9f;fill-opacity:0.99215686;stroke:none;stroke-width:0.26458332px;stroke-linecap:butt;stroke-linejoin:miter;stroke-opacity:1"
       d="m 124.75105,142.35104 -14.0881,-4.18932 8.13497,4.18932 c 0,0 5.82083,1.5875 5.95313,0 z"
       id="path845"
       inkscape:connector-curvature="0"
       sodipodi:nodetypes="cccc" />
  </g>
</svg>
