<?xml version="1.0" encoding="UTF-8" standalone="no"?>
<svg
   xmlns:dc="http://purl.org/dc/elements/1.1/"
   xmlns:cc="http://creativecommons.org/ns#"
   xmlns:rdf="http://www.w3.org/1999/02/22-rdf-syntax-ns#"
   xmlns:svg="http://www.w3.org/2000/svg"
   xmlns="http://www.w3.org/2000/svg"
   xmlns:sodipodi="http://sodipodi.sourceforge.net/DTD/sodipodi-0.dtd"
   xmlns:inkscape="http://www.inkscape.org/namespaces/inkscape"
   inkscape:export-ydpi="172"
   inkscape:export-xdpi="172"
   inkscape:export-filename="C:\Users\nor2rng\dev\github\ord\OpenRobotDatabase\docs\img\logo\ord02.png"
   sodipodi:docname="ord02.svg"
   inkscape:version="1.0 (4035a4fb49, 2020-05-01)"
   id="svg8"
   version="1.1"
   viewBox="0 0 210 297"
   height="297mm"
   width="210mm">
  <defs
     id="defs2">
    <filter
       height="1.0628582"
       y="-0.031429084"
       width="1.1512015"
       x="-0.075600751"
       id="filter1164"
       style="color-interpolation-filters:sRGB"
       inkscape:collect="always">
      <feGaussianBlur
         id="feGaussianBlur1166"
         stdDeviation="2.3932772"
         inkscape:collect="always" />
    </filter>
  </defs>
  <sodipodi:namedview
     inkscape:document-rotation="0"
     inkscape:window-maximized="1"
     inkscape:window-y="-8"
     inkscape:window-x="-8"
     inkscape:window-height="1017"
     inkscape:window-width="1920"
     showgrid="false"
     inkscape:current-layer="layer1"
     inkscape:document-units="mm"
     inkscape:cy="408.39131"
     inkscape:cx="606.13821"
     inkscape:zoom="0.49497475"
     inkscape:pageshadow="2"
     inkscape:pageopacity="0.0"
     borderopacity="1.0"
     bordercolor="#666666"
     pagecolor="#ffffff"
     id="base" />
  <metadata
     id="metadata5">
    <rdf:RDF>
      <cc:Work
         rdf:about="">
        <dc:format>image/svg+xml</dc:format>
        <dc:type
           rdf:resource="http://purl.org/dc/dcmitype/StillImage" />
        <dc:title />
      </cc:Work>
    </rdf:RDF>
  </metadata>
  <g
     id="layer1"
     inkscape:groupmode="layer"
     inkscape:label="Layer 1">
    <g
       style="stroke-width:0.85805964"
       transform="matrix(0.97336668,0,0,1.3953676,-6.0134831,-60.242469)"
       id="g905">
      <path
         d="m 56.31146,51.968282 c -10.16136,0 -19.360189,1.3419 -26.302787,3.6561 -3.471299,1.1571 -6.388796,2.53728 -8.65632,4.32429 -2.267524,1.78701 -4.066418,4.24818 -4.066418,7.23263 0,0.0207 0.0019,0.0408 0.0021,0.0615 h -0.0062 v 58.288428 h 0.0186 c -0.0068,0.12861 -0.01447,0.25695 -0.01447,0.38757 0,2.98447 1.798894,5.44512 4.066418,7.23212 2.267524,1.78701 5.185021,3.16718 8.65632,4.32428 6.942598,2.31421 16.141427,3.65611 26.302787,3.65611 10.161361,0 19.360191,-1.3419 26.302791,-3.65611 3.47129,-1.1571 6.38879,-2.53727 8.65632,-4.32428 2.26753,-1.787 4.06642,-4.24765 4.06642,-7.23212 0,-0.13062 -0.008,-0.25896 -0.0145,-0.38757 h -0.007 v -18.63349 c 0.014,-0.18393 0.0212,-0.36997 0.0212,-0.55811 0,-0.13062 -0.008,-0.25896 -0.0145,-0.38757 h -0.007 V 87.318572 c 0.014,-0.18393 0.0212,-0.36997 0.0212,-0.5581 0,-0.13062 -0.008,-0.25897 -0.0145,-0.38757 h -0.007 v -18.63349 c 0.014,-0.18394 0.0212,-0.36997 0.0212,-0.55811 0,-2.98445 -1.79889,-5.44562 -4.06642,-7.23263 -2.26752,-1.78701 -5.18502,-3.16719 -8.65632,-4.32429 -6.94265,-2.3142 -16.14148,-3.6561 -26.302844,-3.6561 z m 0,6.61303 c -63.4999986,-83.872226 -31.749999,-41.936115 0,0 z"
         style="color:#000000;font-style:normal;font-variant:normal;font-weight:normal;font-stretch:normal;font-size:medium;line-height:normal;font-family:sans-serif;font-variant-ligatures:normal;font-variant-position:normal;font-variant-caps:normal;font-variant-numeric:normal;font-variant-alternates:normal;font-feature-settings:normal;text-indent:0;text-align:start;text-decoration:none;text-decoration-line:none;text-decoration-style:solid;text-decoration-color:#000000;letter-spacing:normal;word-spacing:normal;text-transform:none;writing-mode:lr-tb;direction:ltr;text-orientation:mixed;dominant-baseline:auto;baseline-shift:baseline;text-anchor:start;white-space:normal;shape-padding:0;clip-rule:nonzero;display:inline;overflow:visible;visibility:visible;isolation:auto;mix-blend-mode:normal;color-interpolation:sRGB;color-interpolation-filters:linearRGB;solid-color:#000000;solid-opacity:1;vector-effect:none;fill:#0069d7;fill-opacity:0.23860599;fill-rule:nonzero;stroke:none;stroke-width:5.67570353;stroke-linecap:round;stroke-linejoin:round;stroke-miterlimit:4;stroke-dasharray:none;stroke-dashoffset:0;stroke-opacity:1;color-rendering:auto;image-rendering:auto;shape-rendering:auto;text-rendering:auto;enable-background:accumulate"
         id="path883"
         sodipodi:nodetypes="ssssccccssssssscccscccscccsssscc"
         inkscape:connector-curvature="0" />
      <path
         d="m 56.31146,51.968282 c -10.16136,0 -19.36019,1.3419 -26.302787,3.6561 -3.471299,1.1571 -6.388796,2.53728 -8.65632,4.32429 -2.267524,1.78701 -4.066418,4.24818 -4.066418,7.23263 0,0.0207 0.0019,0.0408 0.0021,0.0615 h -0.0062 v 58.288428 h 0.0186 c -0.0068,0.12861 -0.01447,0.25695 -0.01447,0.38757 0,2.98447 1.798895,5.44512 4.066419,7.23212 2.267524,1.78701 5.185021,3.16718 8.65632,4.32428 6.942597,2.31421 16.141427,3.65611 26.302787,3.65611 10.16136,0 19.36019,-1.3419 26.30279,-3.65611 3.47129,-1.1571 6.38879,-2.53727 8.65632,-4.32428 2.26753,-1.787 4.06642,-4.24765 4.06642,-7.23212 0,-0.13062 -0.008,-0.25896 -0.0145,-0.38757 h -0.007 v -18.63349 c 0.014,-0.18393 0.0212,-0.36997 0.0212,-0.55811 0,-0.13062 -0.008,-0.25896 -0.0145,-0.38757 h -0.007 V 87.318572 c 0.014,-0.18393 0.0212,-0.36997 0.0212,-0.5581 0,-0.13062 -0.008,-0.25897 -0.0145,-0.38757 h -0.007 v -18.63349 c 0.014,-0.18394 0.0212,-0.36997 0.0212,-0.55811 0,-2.98445 -1.79889,-5.44562 -4.06642,-7.23263 -2.26752,-1.78701 -5.18502,-3.16719 -8.65632,-4.32429 -6.94265,-2.3142 -16.14148,-3.6561 -26.302843,-3.6561 z m 0,6.61303 c 9.565561,0 18.225871,1.32365 24.210921,3.31866 2.99252,0.99751 5.30697,2.18237 6.65438,3.24425 1.34742,1.06188 1.54667,1.73372 1.54667,2.03708 0,0.0178 -0.004,0.0411 -0.005,0.0615 h -0.10903 v 0.38757 c -0.16401,0.36694 -0.54967,0.89229 -1.43247,1.58802 -1.34741,1.06188 -3.66186,2.24674 -6.65438,3.24424 -5.98505,1.99502 -14.64536,3.31815 -24.210923,3.31815 -9.565563,0 -18.225879,-1.32313 -24.210925,-3.31815 -2.992523,-0.9975 -5.306963,-2.18236 -6.654374,-3.24424 -0.9348,-0.73671 -1.311334,-1.28159 -1.457794,-1.65003 v -0.32556 h -0.08387 c -0.0016,-0.0204 -0.0052,-0.0437 -0.0052,-0.0615 0,-0.30336 0.199263,-0.9752 1.546675,-2.03708 1.347411,-1.06188 3.661851,-2.24674 6.654374,-3.24425 5.985046,-1.99501 14.645362,-3.31866 24.210925,-3.31866 z m -32.323093,17.57619 c 1.75758,0.98656 3.771895,1.83073 6.020306,2.5802 6.942597,2.3142 16.141427,3.65611 26.302787,3.65611 10.161361,0 19.360191,-1.34191 26.302791,-3.65611 2.23754,-0.74584 4.24341,-1.58532 5.99498,-2.56573 v 11.03705 c -0.16376,0.36696 -0.54909,0.89235 -1.43247,1.58853 -1.34741,1.06188 -3.66186,2.24675 -6.65438,3.24425 -5.98505,1.99502 -14.64536,3.31814 -24.210921,3.31814 -9.565563,0 -18.225878,-1.32312 -24.210925,-3.31814 -2.992522,-0.9975 -5.306963,-2.18237 -6.654374,-3.24425 -0.935445,-0.73721 -1.311617,-1.2821 -1.457794,-1.65054 z m 0,19.57968 c 1.757516,0.98649 3.772051,1.83027 6.020306,2.57969 6.942597,2.314198 16.141427,3.656108 26.302787,3.656108 10.161361,0 19.360191,-1.34191 26.302791,-3.656108 2.23748,-0.74583 4.24342,-1.58534 5.99498,-2.56574 v 11.037058 c -0.16376,0.36696 -0.54909,0.89235 -1.43247,1.58853 -1.34741,1.06188 -3.66186,2.24675 -6.65438,3.24425 -5.98505,1.99502 -14.64536,3.31814 -24.210921,3.31814 -9.565563,0 -18.225878,-1.32312 -24.210925,-3.31814 -2.992522,-0.9975 -5.306963,-2.18237 -6.654374,-3.24425 -0.935006,-0.73687 -1.311463,-1.28159 -1.457794,-1.65003 z m 0,19.579168 c 1.757516,0.98649 3.772051,1.83027 6.020306,2.57968 6.942597,2.31421 16.141427,3.65611 26.302787,3.65611 10.161361,0 19.360191,-1.3419 26.302791,-3.65611 2.23748,-0.74582 4.24342,-1.58533 5.99498,-2.56573 v 10.20093 h 0.0253 c 0.0646,0.16263 0.0889,0.29468 0.0889,0.38757 0,0.30338 -0.19926,0.9752 -1.54667,2.03709 -1.34741,1.06187 -3.66186,2.24674 -6.65438,3.24424 -5.98505,1.99502 -14.64536,3.31815 -24.210924,3.31815 -9.565563,0 -18.225878,-1.32313 -24.210925,-3.31815 -2.992522,-0.9975 -5.306962,-2.18237 -6.654374,-3.24424 -1.347412,-1.06189 -1.546675,-1.73371 -1.546675,-2.03709 0,-0.0929 0.02424,-0.22494 0.08888,-0.38757 z"
         style="color:#000000;font-style:normal;font-variant:normal;font-weight:normal;font-stretch:normal;font-size:medium;line-height:normal;font-family:sans-serif;font-variant-ligatures:normal;font-variant-position:normal;font-variant-caps:normal;font-variant-numeric:normal;font-variant-alternates:normal;font-feature-settings:normal;text-indent:0;text-align:start;text-decoration:none;text-decoration-line:none;text-decoration-style:solid;text-decoration-color:#000000;letter-spacing:normal;word-spacing:normal;text-transform:none;writing-mode:lr-tb;direction:ltr;text-orientation:mixed;dominant-baseline:auto;baseline-shift:baseline;text-anchor:start;white-space:normal;shape-padding:0;clip-rule:nonzero;display:inline;overflow:visible;visibility:visible;isolation:auto;mix-blend-mode:normal;color-interpolation:sRGB;color-interpolation-filters:linearRGB;solid-color:#000000;solid-opacity:1;vector-effect:none;fill:#123ba0;fill-opacity:0.989276;fill-rule:nonzero;stroke:none;stroke-width:5.67570353;stroke-linecap:round;stroke-linejoin:round;stroke-miterlimit:4;stroke-dasharray:none;stroke-dashoffset:0;stroke-opacity:1;color-rendering:auto;image-rendering:auto;shape-rendering:auto;text-rendering:auto;enable-background:accumulate"
         id="path983"
         inkscape:connector-curvature="0" />
      <circle
         r="2.3151042"
         cy="85.040688"
         cx="30.580734"
         id="circle985"
         style="fill:#ff0000;stroke:none;stroke-width:5.67571259;stroke-linecap:round;stroke-linejoin:round;stroke-miterlimit:4;stroke-dasharray:none" />
      <circle
         style="fill:#00ff00;stroke:none;stroke-width:5.67571259;stroke-linecap:round;stroke-linejoin:round;stroke-miterlimit:4;stroke-dasharray:none"
         id="circle1049"
         cx="30.580734"
         cy="104.61989"
         r="2.3151042" />
      <circle
         r="2.3151042"
         cy="124.1991"
         cx="30.580734"
         id="circle1051"
         style="fill:#0000ff;stroke:none;stroke-width:5.67571259;stroke-linecap:round;stroke-linejoin:round;stroke-miterlimit:4;stroke-dasharray:none" />
    </g>
    <text
       id="text909"
       y="64.246323"
       x="71.896057"
       style="font-style:normal;font-variant:normal;font-weight:normal;font-stretch:normal;font-size:15.8256px;line-height:1.25;font-family:Barlow;-inkscape-font-specification:Barlow;text-align:center;letter-spacing:0px;word-spacing:0px;text-anchor:middle;fill:#000000;fill-opacity:1;stroke:none;stroke-width:0.264583"
       xml:space="preserve"><tspan
         style="font-style:normal;font-variant:normal;font-weight:bold;font-stretch:normal;font-family:Barlow;-inkscape-font-specification:'Barlow Bold';stroke-width:0.264583"
         y="64.246323"
         x="71.896057"
         id="tspan907"
         sodipodi:role="line">O</tspan></text>
    <text
       xml:space="preserve"
       style="font-style:normal;font-variant:normal;font-weight:normal;font-stretch:normal;font-size:15.8256px;line-height:1.25;font-family:Barlow;-inkscape-font-specification:Barlow;text-align:center;letter-spacing:0px;word-spacing:0px;text-anchor:middle;fill:#000000;fill-opacity:1;stroke:none;stroke-width:0.264583"
       x="71.896057"
       y="91.641441"
       id="text913"><tspan
         sodipodi:role="line"
         id="tspan911"
         x="71.896057"
         y="91.641441"
         style="font-style:normal;font-variant:normal;font-weight:bold;font-stretch:normal;font-family:Barlow;-inkscape-font-specification:'Barlow Bold';stroke-width:0.264583">R</tspan></text>
    <text
       id="text917"
       y="119.03658"
       x="71.896057"
       style="font-style:normal;font-variant:normal;font-weight:normal;font-stretch:normal;font-size:15.8256px;line-height:1.25;font-family:Barlow;-inkscape-font-specification:Barlow;text-align:center;letter-spacing:0px;word-spacing:0px;text-anchor:middle;fill:#000000;fill-opacity:1;stroke:none;stroke-width:0.264583"
       xml:space="preserve"><tspan
         style="font-style:normal;font-variant:normal;font-weight:bold;font-stretch:normal;font-family:Barlow;-inkscape-font-specification:'Barlow Bold';stroke-width:0.264583"
         y="119.03658"
         x="71.896057"
         id="tspan915"
         sodipodi:role="line">D</tspan></text>
    <text
       xml:space="preserve"
       style="font-style:normal;font-variant:normal;font-weight:normal;font-stretch:normal;font-size:15.8256px;line-height:1.25;font-family:Barlow;-inkscape-font-specification:Barlow;text-align:center;letter-spacing:0px;word-spacing:0px;text-anchor:middle;fill:#000000;fill-opacity:1;stroke:none;stroke-width:0.264583"
       x="100.62753"
       y="64.246323"
       id="text921"><tspan
         sodipodi:role="line"
         id="tspan919"
         x="100.62753"
         y="64.246323"
         style="font-style:normal;font-variant:normal;font-weight:bold;font-stretch:normal;font-family:Barlow;-inkscape-font-specification:'Barlow Bold';stroke-width:0.264583">pen</tspan></text>
    <text
       id="text925"
       y="92.309616"
       x="103.43386"
       style="font-style:normal;font-variant:normal;font-weight:normal;font-stretch:normal;font-size:15.8256px;line-height:1.25;font-family:Barlow;-inkscape-font-specification:Barlow;text-align:center;letter-spacing:0px;word-spacing:0px;text-anchor:middle;fill:#000000;fill-opacity:1;stroke:none;stroke-width:0.264583"
       xml:space="preserve"><tspan
         style="font-style:normal;font-variant:normal;font-weight:bold;font-stretch:normal;font-family:Barlow;-inkscape-font-specification:'Barlow Bold';stroke-width:0.264583"
         y="92.309616"
         x="103.43386"
         id="tspan923"
         sodipodi:role="line">obot</tspan></text>
    <text
       xml:space="preserve"
       style="font-style:normal;font-variant:normal;font-weight:normal;font-stretch:normal;font-size:15.8256px;line-height:1.25;font-family:Barlow;-inkscape-font-specification:Barlow;text-align:center;letter-spacing:0px;word-spacing:0px;text-anchor:middle;fill:#000000;fill-opacity:1;stroke:none;stroke-width:0.264583"
       x="115.99553"
       y="119.57111"
       id="text929"><tspan
         sodipodi:role="line"
         id="tspan927"
         x="115.99553"
         y="119.57111"
         style="font-style:normal;font-variant:normal;font-weight:bold;font-stretch:normal;font-family:Barlow;-inkscape-font-specification:'Barlow Bold';stroke-width:0.264583">atabase</tspan></text>
    <text
       xml:space="preserve"
       style="font-style:normal;font-variant:normal;font-weight:normal;font-stretch:normal;font-size:15.8256px;line-height:1.25;font-family:Barlow;-inkscape-font-specification:Barlow;text-align:center;letter-spacing:0px;word-spacing:0px;text-anchor:middle;fill:#000000;fill-opacity:1;stroke:none;stroke-width:0.264583"
       x="71.896057"
       y="64.246323"
       id="text933"><tspan
         sodipodi:role="line"
         id="tspan931"
         x="71.896057"
         y="64.246323"
         style="font-style:normal;font-variant:normal;font-weight:bold;font-stretch:normal;font-family:Barlow;-inkscape-font-specification:'Barlow Bold';stroke-width:0.264583">O</tspan></text>
    <text
       id="text937"
       y="91.641441"
       x="71.896057"
       style="font-style:normal;font-variant:normal;font-weight:normal;font-stretch:normal;font-size:15.8256px;line-height:1.25;font-family:Barlow;-inkscape-font-specification:Barlow;text-align:center;letter-spacing:0px;word-spacing:0px;text-anchor:middle;fill:#000000;fill-opacity:1;stroke:none;stroke-width:0.264583"
       xml:space="preserve"><tspan
         style="font-style:normal;font-variant:normal;font-weight:bold;font-stretch:normal;font-family:Barlow;-inkscape-font-specification:'Barlow Bold';stroke-width:0.264583"
         y="91.641441"
         x="71.896057"
         id="tspan935"
         sodipodi:role="line">R</tspan></text>
    <text
       xml:space="preserve"
       style="font-style:normal;font-variant:normal;font-weight:normal;font-stretch:normal;font-size:15.8256px;line-height:1.25;font-family:Barlow;-inkscape-font-specification:Barlow;text-align:center;letter-spacing:0px;word-spacing:0px;text-anchor:middle;fill:#000000;fill-opacity:1;stroke:none;stroke-width:0.264583"
       x="71.896057"
       y="119.03658"
       id="text941"><tspan
         sodipodi:role="line"
         id="tspan939"
         x="71.896057"
         y="119.03658"
         style="font-style:normal;font-variant:normal;font-weight:bold;font-stretch:normal;font-family:Barlow;-inkscape-font-specification:'Barlow Bold';stroke-width:0.264583">D</tspan></text>
    <text
       id="text945"
       y="64.246323"
       x="100.62753"
       style="font-style:normal;font-variant:normal;font-weight:normal;font-stretch:normal;font-size:15.8256px;line-height:1.25;font-family:Barlow;-inkscape-font-specification:Barlow;text-align:center;letter-spacing:0px;word-spacing:0px;text-anchor:middle;fill:#000000;fill-opacity:1;stroke:none;stroke-width:0.264583"
       xml:space="preserve"><tspan
         style="font-style:normal;font-variant:normal;font-weight:bold;font-stretch:normal;font-family:Barlow;-inkscape-font-specification:'Barlow Bold';stroke-width:0.264583"
         y="64.246323"
         x="100.62753"
         id="tspan943"
         sodipodi:role="line">pen</tspan></text>
    <text
       xml:space="preserve"
       style="font-style:normal;font-variant:normal;font-weight:normal;font-stretch:normal;font-size:15.8256px;line-height:1.25;font-family:Barlow;-inkscape-font-specification:Barlow;text-align:center;letter-spacing:0px;word-spacing:0px;text-anchor:middle;fill:#000000;fill-opacity:1;stroke:none;stroke-width:0.264583"
       x="103.43386"
       y="92.309616"
       id="text949"><tspan
         sodipodi:role="line"
         id="tspan947"
         x="103.43386"
         y="92.309616"
         style="font-style:normal;font-variant:normal;font-weight:bold;font-stretch:normal;font-family:Barlow;-inkscape-font-specification:'Barlow Bold';stroke-width:0.264583">obot</tspan></text>
    <text
       id="text953"
       y="119.57111"
       x="115.99553"
       style="font-style:normal;font-variant:normal;font-weight:normal;font-stretch:normal;font-size:15.8256px;line-height:1.25;font-family:Barlow;-inkscape-font-specification:Barlow;text-align:center;letter-spacing:0px;word-spacing:0px;text-anchor:middle;fill:#000000;fill-opacity:1;stroke:none;stroke-width:0.264583"
       xml:space="preserve"><tspan
         style="font-style:normal;font-variant:normal;font-weight:bold;font-stretch:normal;font-family:Barlow;-inkscape-font-specification:'Barlow Bold';stroke-width:0.264583"
         y="119.57111"
         x="115.99553"
         id="tspan951"
         sodipodi:role="line">atabase</tspan></text>
    <g
       transform="translate(-243.74981,-5.3453905)"
       id="g1197">
      <path
         inkscape:connector-curvature="0"
         sodipodi:nodetypes="ssssccccssssssscccscccscccsssscc"
         id="path967"
         style="color:#000000;font-style:normal;font-variant:normal;font-weight:normal;font-stretch:normal;font-size:medium;line-height:normal;font-family:sans-serif;font-variant-ligatures:normal;font-variant-position:normal;font-variant-caps:normal;font-variant-numeric:normal;font-variant-alternates:normal;font-feature-settings:normal;text-indent:0;text-align:start;text-decoration:none;text-decoration-line:none;text-decoration-style:solid;text-decoration-color:#000000;letter-spacing:normal;word-spacing:normal;text-transform:none;writing-mode:lr-tb;direction:ltr;text-orientation:mixed;dominant-baseline:auto;baseline-shift:baseline;text-anchor:start;white-space:normal;shape-padding:0;clip-rule:nonzero;display:inline;overflow:visible;visibility:visible;isolation:auto;mix-blend-mode:normal;color-interpolation:sRGB;color-interpolation-filters:linearRGB;solid-color:#000000;solid-opacity:1;vector-effect:none;fill:#000000;fill-opacity:1;fill-rule:nonzero;stroke:none;stroke-width:6.61457968;stroke-linecap:round;stroke-linejoin:round;stroke-miterlimit:4;stroke-dasharray:none;stroke-dashoffset:0;stroke-opacity:1;filter:url(#filter1164);color-rendering:auto;image-rendering:auto;shape-rendering:auto;text-rendering:auto;enable-background:accumulate"
         d="m 291.69608,158.18041 c -9.89073,0 -18.84456,1.87245 -25.60226,5.10161 -3.37884,1.61458 -6.21864,3.54044 -8.42577,6.03397 -2.20713,2.49354 -3.95812,5.92778 -3.95812,10.09218 0,0.0289 0.002,0.0569 0.002,0.0858 h -0.006 v 81.33378 h 0.0181 c -0.007,0.17946 -0.0141,0.35854 -0.0141,0.5408 0,4.16443 1.75099,7.59795 3.95812,10.09147 2.20713,2.49353 5.04692,4.41938 8.42577,6.03396 6.7577,3.22917 15.71153,5.10162 25.60226,5.10162 9.89073,0 18.84456,-1.87245 25.60226,-5.10162 3.37884,-1.61458 6.21863,-3.54043 8.42577,-6.03396 2.20714,-2.49352 3.95812,-5.92704 3.95812,-10.09147 0,-0.18226 -0.008,-0.36134 -0.0141,-0.5408 h -0.007 V 234.8272 c 0.0136,-0.25665 0.0206,-0.51624 0.0206,-0.77877 0,-0.18226 -0.008,-0.36134 -0.0141,-0.5408 h -0.007 v -26.00057 c 0.0136,-0.25665 0.0206,-0.51624 0.0206,-0.77875 0,-0.18226 -0.008,-0.36136 -0.0141,-0.5408 h -0.007 v -26.00057 c 0.0136,-0.25667 0.0206,-0.51625 0.0206,-0.77877 0,-4.1644 -1.75098,-7.59864 -3.95811,-10.09218 -2.20713,-2.49353 -5.04693,-4.41939 -8.42578,-6.03397 -6.75774,-3.22916 -15.71158,-5.10161 -25.60231,-5.10161 z m 0,9.22761 c -61.80878,-117.032584 -30.90439,-58.51629 0,0 z" />
      <path
         inkscape:connector-curvature="0"
         id="path969"
         style="color:#000000;font-style:normal;font-variant:normal;font-weight:normal;font-stretch:normal;font-size:medium;line-height:normal;font-family:sans-serif;font-variant-ligatures:normal;font-variant-position:normal;font-variant-caps:normal;font-variant-numeric:normal;font-variant-alternates:normal;font-feature-settings:normal;text-indent:0;text-align:start;text-decoration:none;text-decoration-line:none;text-decoration-style:solid;text-decoration-color:#000000;letter-spacing:normal;word-spacing:normal;text-transform:none;writing-mode:lr-tb;direction:ltr;text-orientation:mixed;dominant-baseline:auto;baseline-shift:baseline;text-anchor:start;white-space:normal;shape-padding:0;clip-rule:nonzero;display:inline;overflow:visible;visibility:visible;isolation:auto;mix-blend-mode:normal;color-interpolation:sRGB;color-interpolation-filters:linearRGB;solid-color:#000000;solid-opacity:1;vector-effect:none;fill:#e6e6e6;fill-opacity:0.989276;fill-rule:nonzero;stroke:none;stroke-width:6.61457968;stroke-linecap:round;stroke-linejoin:round;stroke-miterlimit:4;stroke-dasharray:none;stroke-dashoffset:0;stroke-opacity:1;color-rendering:auto;image-rendering:auto;shape-rendering:auto;text-rendering:auto;enable-background:accumulate"
         d="m 291.69608,158.18041 c -9.89073,0 -18.84456,1.87245 -25.60226,5.10161 -3.37884,1.61458 -6.21864,3.54044 -8.42577,6.03397 -2.20713,2.49354 -3.95812,5.92778 -3.95812,10.09218 0,0.0289 0.002,0.0569 0.002,0.0858 h -0.006 v 81.33378 h 0.0181 c -0.007,0.17946 -0.0141,0.35854 -0.0141,0.5408 0,4.16443 1.75099,7.59795 3.95812,10.09147 2.20713,2.49353 5.04693,4.41938 8.42577,6.03396 6.7577,3.22917 15.71153,5.10162 25.60226,5.10162 9.89073,0 18.84456,-1.87245 25.60226,-5.10162 3.37884,-1.61458 6.21863,-3.54043 8.42577,-6.03396 2.20714,-2.49352 3.95812,-5.92704 3.95812,-10.09147 0,-0.18226 -0.008,-0.36134 -0.0141,-0.5408 h -0.007 V 234.8272 c 0.0136,-0.25665 0.0206,-0.51624 0.0206,-0.77877 0,-0.18226 -0.008,-0.36134 -0.0141,-0.5408 h -0.007 v -26.00057 c 0.0136,-0.25665 0.0206,-0.51624 0.0206,-0.77875 0,-0.18226 -0.008,-0.36136 -0.0141,-0.5408 h -0.007 v -26.00057 c 0.0136,-0.25667 0.0206,-0.51625 0.0206,-0.77877 0,-4.1644 -1.75098,-7.59864 -3.95811,-10.09218 -2.20713,-2.49353 -5.04693,-4.41939 -8.42578,-6.03397 -6.75774,-3.22916 -15.71158,-5.10161 -25.60231,-5.10161 z m 0,9.22761 c 9.3108,0 17.74045,1.84698 23.5661,4.63075 2.91282,1.3919 5.16563,3.04521 6.47715,4.52692 1.31154,1.48172 1.50548,2.41918 1.50548,2.84248 0,0.0248 -0.004,0.0573 -0.005,0.0858 h -0.10612 v 0.5408 c -0.15964,0.51201 -0.53503,1.24507 -1.39432,2.21587 -1.31152,1.48171 -3.56433,3.13503 -6.47715,4.52691 -5.82565,2.78378 -14.25531,4.63004 -23.56611,4.63004 -9.3108,0 -17.74046,-1.84626 -23.56611,-4.63004 -2.91282,-1.39188 -5.16562,-3.0452 -6.47714,-4.52691 -0.9099,-1.02798 -1.27641,-1.78829 -1.41897,-2.3024 v -0.45427 h -0.0816 c -0.002,-0.0285 -0.005,-0.061 -0.005,-0.0858 0,-0.4233 0.19396,-1.36076 1.50548,-2.84248 1.31153,-1.48171 3.56433,-3.13502 6.47715,-4.52692 5.82565,-2.78377 14.25531,-4.63075 23.56611,-4.63075 z m -31.46222,24.52525 c 1.71077,1.37661 3.67143,2.55454 5.85996,3.60033 6.7577,3.22916 15.71153,5.10161 25.60226,5.10161 9.89073,0 18.84456,-1.87245 25.60226,-5.10161 2.17795,-1.04072 4.13039,-2.21211 5.83531,-3.58014 v 15.40074 c -0.1594,0.51205 -0.53446,1.24516 -1.39432,2.21659 -1.31152,1.48171 -3.56433,3.13504 -6.47715,4.52692 -5.82565,2.78378 -14.2553,4.63002 -23.5661,4.63002 -9.3108,0 -17.74046,-1.84624 -23.56611,-4.63002 -2.91282,-1.39188 -5.16562,-3.04521 -6.47714,-4.52692 -0.91054,-1.02868 -1.27669,-1.78901 -1.41897,-2.30312 z m 0,27.32085 c 1.7107,1.37652 3.67159,2.5539 5.85996,3.59962 6.7577,3.22915 15.71153,5.10161 25.60226,5.10161 9.89073,0 18.84456,-1.87246 25.60226,-5.10161 2.17789,-1.04071 4.1304,-2.21214 5.83531,-3.58015 v 15.40075 c -0.1594,0.51204 -0.53446,1.24515 -1.39432,2.21658 -1.31152,1.48171 -3.56433,3.13504 -6.47715,4.52692 -5.82565,2.78379 -14.2553,4.63003 -23.5661,4.63003 -9.3108,0 -17.74046,-1.84624 -23.56611,-4.63003 -2.91282,-1.39188 -5.16562,-3.04521 -6.47714,-4.52692 -0.91011,-1.0282 -1.27654,-1.78829 -1.41897,-2.3024 z m 0,27.32014 c 1.7107,1.37651 3.67159,2.5539 5.85996,3.5996 6.7577,3.22917 15.71153,5.10162 25.60226,5.10162 9.89073,0 18.84456,-1.87245 25.60226,-5.10162 2.17789,-1.04069 4.1304,-2.21212 5.83531,-3.58014 v 14.23405 h 0.0246 c 0.0629,0.22693 0.0865,0.41119 0.0865,0.5408 0,0.42333 -0.19395,1.36076 -1.50548,2.84249 -1.31152,1.4817 -3.56433,3.13503 -6.47715,4.52691 -5.82565,2.78378 -14.2553,4.63004 -23.5661,4.63004 -9.3108,0 -17.74047,-1.84626 -23.56611,-4.63004 -2.91282,-1.39188 -5.16562,-3.04521 -6.47715,-4.52691 -1.31152,-1.48173 -1.50548,-2.41916 -1.50548,-2.84249 0,-0.12963 0.0236,-0.31387 0.0865,-0.5408 z" />
      <ellipse
         style="fill:#ff0000;stroke:none;stroke-width:6.61459017;stroke-linecap:round;stroke-linejoin:round;stroke-miterlimit:4;stroke-dasharray:none"
         id="circle971"
         cx="266.65063"
         cy="204.32858"
         rx="2.2534454"
         ry="3.2304215" />
      <ellipse
         cy="231.64876"
         cx="266.65063"
         id="circle973"
         style="fill:#00ff00;stroke:none;stroke-width:6.61459017;stroke-linecap:round;stroke-linejoin:round;stroke-miterlimit:4;stroke-dasharray:none"
         rx="2.2534454"
         ry="3.2304215" />
      <ellipse
         style="fill:#0000ff;stroke:none;stroke-width:6.61459017;stroke-linecap:round;stroke-linejoin:round;stroke-miterlimit:4;stroke-dasharray:none"
         id="circle975"
         cx="266.65063"
         cy="258.96896"
         rx="2.2534454"
         ry="3.2304215" />
      <text
         id="text981"
         y="210.15434"
         x="316.68381"
         style="font-style:normal;font-variant:normal;font-weight:normal;font-stretch:normal;font-size:15.8256px;line-height:1.25;font-family:Barlow;-inkscape-font-specification:Barlow;text-align:center;letter-spacing:0px;word-spacing:0px;text-anchor:middle;fill:#000000;fill-opacity:1;stroke:none;stroke-width:0.264583"
         xml:space="preserve"><tspan
           style="font-style:normal;font-variant:normal;font-weight:bold;font-stretch:normal;font-family:Barlow;-inkscape-font-specification:'Barlow Bold';stroke-width:0.264583"
           y="210.15434"
           x="316.68381"
           id="tspan979"
           sodipodi:role="line">O</tspan></text>
      <text
         xml:space="preserve"
         style="font-style:normal;font-variant:normal;font-weight:normal;font-stretch:normal;font-size:15.8256px;line-height:1.25;font-family:Barlow;-inkscape-font-specification:Barlow;text-align:center;letter-spacing:0px;word-spacing:0px;text-anchor:middle;fill:#000000;fill-opacity:1;stroke:none;stroke-width:0.264583"
         x="316.68381"
         y="237.54947"
         id="text985"><tspan
           sodipodi:role="line"
           id="tspan983"
           x="316.68381"
           y="237.54947"
           style="font-style:normal;font-variant:normal;font-weight:bold;font-stretch:normal;font-family:Barlow;-inkscape-font-specification:'Barlow Bold';stroke-width:0.264583">R</tspan></text>
      <text
         id="text989"
         y="264.94461"
         x="316.68381"
         style="font-style:normal;font-variant:normal;font-weight:normal;font-stretch:normal;font-size:15.8256px;line-height:1.25;font-family:Barlow;-inkscape-font-specification:Barlow;text-align:center;letter-spacing:0px;word-spacing:0px;text-anchor:middle;fill:#000000;fill-opacity:1;stroke:none;stroke-width:0.264583"
         xml:space="preserve"><tspan
           style="font-style:normal;font-variant:normal;font-weight:bold;font-stretch:normal;font-family:Barlow;-inkscape-font-specification:'Barlow Bold';stroke-width:0.264583"
           y="264.94461"
           x="316.68381"
           id="tspan987"
           sodipodi:role="line">D</tspan></text>
      <text
         xml:space="preserve"
         style="font-style:normal;font-variant:normal;font-weight:normal;font-stretch:normal;font-size:15.8256px;line-height:1.25;font-family:Barlow;-inkscape-font-specification:Barlow;text-align:center;letter-spacing:0px;word-spacing:0px;text-anchor:middle;fill:#000000;fill-opacity:1;stroke:none;stroke-width:0.264583"
         x="345.41528"
         y="210.15434"
         id="text993"><tspan
           sodipodi:role="line"
           id="tspan991"
           x="345.41528"
           y="210.15434"
           style="font-style:normal;font-variant:normal;font-weight:bold;font-stretch:normal;font-family:Barlow;-inkscape-font-specification:'Barlow Bold';stroke-width:0.264583">pen</tspan></text>
      <text
         id="text997"
         y="238.21764"
         x="348.22162"
         style="font-style:normal;font-variant:normal;font-weight:normal;font-stretch:normal;font-size:15.8256px;line-height:1.25;font-family:Barlow;-inkscape-font-specification:Barlow;text-align:center;letter-spacing:0px;word-spacing:0px;text-anchor:middle;fill:#000000;fill-opacity:1;stroke:none;stroke-width:0.264583"
         xml:space="preserve"><tspan
           style="font-style:normal;font-variant:normal;font-weight:bold;font-stretch:normal;font-family:Barlow;-inkscape-font-specification:'Barlow Bold';stroke-width:0.264583"
           y="238.21764"
           x="348.22162"
           id="tspan995"
           sodipodi:role="line">obot</tspan></text>
      <text
         xml:space="preserve"
         style="font-style:normal;font-variant:normal;font-weight:normal;font-stretch:normal;font-size:15.8256px;line-height:1.25;font-family:Barlow;-inkscape-font-specification:Barlow;text-align:center;letter-spacing:0px;word-spacing:0px;text-anchor:middle;fill:#000000;fill-opacity:1;stroke:none;stroke-width:0.264583"
         x="360.78326"
         y="265.47913"
         id="text1001"><tspan
           sodipodi:role="line"
           id="tspan999"
           x="360.78326"
           y="265.47913"
           style="font-style:normal;font-variant:normal;font-weight:bold;font-stretch:normal;font-family:Barlow;-inkscape-font-specification:'Barlow Bold';stroke-width:0.264583">atabase</tspan></text>
      <text
         xml:space="preserve"
         style="font-style:normal;font-variant:normal;font-weight:normal;font-stretch:normal;font-size:15.8256px;line-height:1.25;font-family:Barlow;-inkscape-font-specification:Barlow;text-align:center;letter-spacing:0px;word-spacing:0px;text-anchor:middle;fill:#ffffff;fill-opacity:1;stroke:none;stroke-width:0.264583"
         x="314.56711"
         y="210.15434"
         id="text1005"><tspan
           sodipodi:role="line"
           id="tspan1003"
           x="314.56711"
           y="210.15434"
           style="font-style:normal;font-variant:normal;font-weight:bold;font-stretch:normal;font-family:Barlow;-inkscape-font-specification:'Barlow Bold';fill:#ffffff;stroke-width:0.264583">O</tspan></text>
      <text
         id="text1009"
         y="238.60779"
         x="314.03793"
         style="font-style:normal;font-variant:normal;font-weight:normal;font-stretch:normal;font-size:15.8256px;line-height:1.25;font-family:Barlow;-inkscape-font-specification:Barlow;text-align:center;letter-spacing:0px;word-spacing:0px;text-anchor:middle;fill:#ffffff;fill-opacity:1;stroke:none;stroke-width:0.264583"
         xml:space="preserve"><tspan
           style="font-style:normal;font-variant:normal;font-weight:bold;font-stretch:normal;font-family:Barlow;-inkscape-font-specification:'Barlow Bold';fill:#ffffff;stroke-width:0.264583"
           y="238.60779"
           x="314.03793"
           id="tspan1007"
           sodipodi:role="line">R</tspan></text>
      <text
         xml:space="preserve"
         style="font-style:normal;font-variant:normal;font-weight:normal;font-stretch:normal;font-size:15.8256px;line-height:1.25;font-family:Barlow;-inkscape-font-specification:Barlow;text-align:center;letter-spacing:0px;word-spacing:0px;text-anchor:middle;fill:#ffffff;fill-opacity:1;stroke:none;stroke-width:0.264583"
         x="313.50876"
         y="266.53214"
         id="text1013"><tspan
           sodipodi:role="line"
           id="tspan1011"
           x="313.50876"
           y="266.53214"
           style="font-style:normal;font-variant:normal;font-weight:bold;font-stretch:normal;font-family:Barlow;-inkscape-font-specification:'Barlow Bold';fill:#ffffff;stroke-width:0.264583">D</tspan></text>
      <text
         id="text1017"
         y="210.15434"
         x="345.41528"
         style="font-style:normal;font-variant:normal;font-weight:normal;font-stretch:normal;font-size:15.8256px;line-height:1.25;font-family:Barlow;-inkscape-font-specification:Barlow;text-align:center;letter-spacing:0px;word-spacing:0px;text-anchor:middle;fill:#000000;fill-opacity:1;stroke:none;stroke-width:0.264583"
         xml:space="preserve"><tspan
           style="font-style:normal;font-variant:normal;font-weight:bold;font-stretch:normal;font-family:Barlow;-inkscape-font-specification:'Barlow Bold';stroke-width:0.264583"
           y="210.15434"
           x="345.41528"
           id="tspan1015"
           sodipodi:role="line">pen</tspan></text>
      <text
         xml:space="preserve"
         style="font-style:normal;font-variant:normal;font-weight:normal;font-stretch:normal;font-size:15.8256px;line-height:1.25;font-family:Barlow;-inkscape-font-specification:Barlow;text-align:center;letter-spacing:0px;word-spacing:0px;text-anchor:middle;fill:#000000;fill-opacity:1;stroke:none;stroke-width:0.264583"
         x="348.22162"
         y="238.21764"
         id="text1021"><tspan
           sodipodi:role="line"
           id="tspan1019"
           x="348.22162"
           y="238.21764"
           style="font-style:normal;font-variant:normal;font-weight:bold;font-stretch:normal;font-family:Barlow;-inkscape-font-specification:'Barlow Bold';stroke-width:0.264583">obot</tspan></text>
      <text
         id="text1025"
         y="265.47913"
         x="360.78326"
         style="font-style:normal;font-variant:normal;font-weight:normal;font-stretch:normal;font-size:15.8256px;line-height:1.25;font-family:Barlow;-inkscape-font-specification:Barlow;text-align:center;letter-spacing:0px;word-spacing:0px;text-anchor:middle;fill:#000000;fill-opacity:1;stroke:none;stroke-width:0.264583"
         xml:space="preserve"><tspan
           style="font-style:normal;font-variant:normal;font-weight:bold;font-stretch:normal;font-family:Barlow;-inkscape-font-specification:'Barlow Bold';stroke-width:0.264583"
           y="265.47913"
           x="360.78326"
           id="tspan1023"
           sodipodi:role="line">atabase</tspan></text>
    </g>
  </g>
</svg>
