<?xml version="1.0" encoding="UTF-8" standalone="no"?>
<svg
   xmlns:dc="http://purl.org/dc/elements/1.1/"
   xmlns:cc="http://creativecommons.org/ns#"
   xmlns:rdf="http://www.w3.org/1999/02/22-rdf-syntax-ns#"
   xmlns:svg="http://www.w3.org/2000/svg"
   xmlns="http://www.w3.org/2000/svg"
   xmlns:sodipodi="http://sodipodi.sourceforge.net/DTD/sodipodi-0.dtd"
   xmlns:inkscape="http://www.inkscape.org/namespaces/inkscape"
   width="120mm"
   height="120mm"
   viewBox="0 0 120 120"
   version="1.1"
   id="svg8"
   inkscape:version="0.92.5 (2060ec1f9f, 2020-04-08)"
   sodipodi:docname="logo.svg"
   inkscape:export-filename="/home/norro/dev/github/malzahno/OpenRobotDatabase/docs/img/logo-white-background.png"
   inkscape:export-xdpi="169.33333"
   inkscape:export-ydpi="169.33333">
  <defs
     id="defs2" />
  <sodipodi:namedview
     id="base"
     pagecolor="#ffffff"
     bordercolor="#666666"
     borderopacity="1.0"
     inkscape:pageopacity="0.0"
     inkscape:pageshadow="2"
     inkscape:zoom="1"
     inkscape:cx="-9.5331571"
     inkscape:cy="120.61642"
     inkscape:document-units="mm"
     inkscape:current-layer="layer1"
     inkscape:document-rotation="0"
     showgrid="false"
     inkscape:window-width="1920"
     inkscape:window-height="1043"
     inkscape:window-x="0"
     inkscape:window-y="0"
     inkscape:window-maximized="1"
     fit-margin-top="0"
     fit-margin-left="0"
     fit-margin-right="0"
     fit-margin-bottom="0" />
  <metadata
     id="metadata5">
    <rdf:RDF>
      <cc:Work
         rdf:about="">
        <dc:format>image/svg+xml</dc:format>
        <dc:type
           rdf:resource="http://purl.org/dc/dcmitype/StillImage" />
        <dc:title></dc:title>
      </cc:Work>
    </rdf:RDF>
  </metadata>
  <g
     inkscape:label="Ebene 1"
     inkscape:groupmode="layer"
     id="layer1"
     transform="translate(-34.210125,-66.179024)">
    <rect
       style="opacity:1;fill:#ffffff;fill-opacity:1;stroke:none;stroke-width:2.67261243;stroke-linecap:round;stroke-linejoin:round;stroke-miterlimit:4;stroke-dasharray:none;stroke-opacity:1"
       id="rect1023"
       width="120"
       height="120"
       x="34.210125"
       y="66.179024" />
    <g
       id="g1002">
      <path
         style="fill:#e37100;fill-opacity:1;stroke:#000000;stroke-width:0.28410074px;stroke-linecap:butt;stroke-linejoin:miter;stroke-opacity:0.21000001"
         d="m 56.780059,107.06799 c 0,0 -0.401781,18.58228 -0.401781,19.48628 0,0.904 0.602669,24.00633 0.602669,24.00633 l -0.803557,18.88359 c 0,0 6.227575,6.93071 6.629346,7.03115 0.401794,0.10046 32.745014,6.52891 32.745014,6.52891 0,0 19.78761,-3.31467 20.89249,-3.41513 1.1049,-0.10047 15.36807,-6.12713 15.97074,-6.83025 0.60267,-0.70309 1.00444,-15.56892 1.1049,-17.47739 0.10046,-1.90844 -0.10046,-43.59302 -0.10046,-43.59302 0,0 -60.869529,0.50221 -63.280203,0.50221 -2.410674,0 -13.359163,-5.12268 -13.359163,-5.12268 z"
         id="path861"
         inkscape:connector-curvature="0" />
      <g
         id="g968">
        <path
           style="color:#000000;font-style:normal;font-variant:normal;font-weight:normal;font-stretch:normal;font-size:medium;line-height:normal;font-family:sans-serif;font-variant-ligatures:normal;font-variant-position:normal;font-variant-caps:normal;font-variant-numeric:normal;font-variant-alternates:normal;font-feature-settings:normal;text-indent:0;text-align:start;text-decoration:none;text-decoration-line:none;text-decoration-style:solid;text-decoration-color:#000000;letter-spacing:normal;word-spacing:normal;text-transform:none;writing-mode:lr-tb;direction:ltr;text-orientation:mixed;dominant-baseline:auto;baseline-shift:baseline;text-anchor:start;white-space:normal;shape-padding:0;clip-rule:nonzero;display:inline;overflow:visible;visibility:visible;isolation:auto;mix-blend-mode:normal;color-interpolation:sRGB;color-interpolation-filters:linearRGB;solid-color:#000000;solid-opacity:1;vector-effect:none;fill:#aa4400;fill-opacity:1;fill-rule:nonzero;stroke:none;stroke-width:26.84415245;stroke-linecap:round;stroke-linejoin:round;stroke-miterlimit:4;stroke-dasharray:none;stroke-dashoffset:0;stroke-opacity:1;color-rendering:auto;image-rendering:auto;shape-rendering:auto;text-rendering:auto;enable-background:accumulate"
           d="M 229.27344 90.476562 C 188.03527 90.476562 150.70272 95.922724 122.52734 105.31445 C 108.43967 110.01041 96.600782 115.61096 87.398438 122.86328 C 78.196078 130.11559 70.894531 140.10485 70.894531 152.2168 C 70.894531 152.2973 70.903163 152.38056 70.904297 152.46484 L 70.878906 152.46484 L 70.878906 389.01953 L 70.953125 389.01953 C 70.925534 389.54126 70.894531 390.06176 70.894531 390.5918 C 70.894531 402.70382 78.196074 412.68917 87.398438 419.94141 C 96.600831 427.19364 108.43974 432.79631 122.52734 437.49219 C 150.70272 446.88401 188.03527 452.33008 229.27344 452.33008 C 270.51161 452.33008 307.84417 446.88401 336.01953 437.49219 C 350.10715 432.79631 361.94608 427.19364 371.14844 419.94141 C 380.35087 412.68917 387.65234 402.70382 387.65234 390.5918 C 387.65234 390.06202 387.61819 389.54145 387.58984 389.01953 L 387.56445 389.01953 L 387.56445 313.39844 C 387.61812 312.65157 387.6543 311.89631 387.6543 311.13281 C 387.6543 310.60304 387.62014 310.08258 387.5918 309.56055 L 387.56445 309.56055 L 387.56445 233.93945 C 387.61812 233.19258 387.65234 232.43733 387.65234 231.67383 C 387.65234 231.14405 387.61819 230.62348 387.58984 230.10156 L 387.56445 230.10156 L 387.56445 154.48047 C 387.61812 153.7336 387.65234 152.97838 387.65234 152.21484 C 387.65234 140.10289 380.35282 130.11563 371.15039 122.86328 C 361.94803 115.61096 350.10727 110.01041 336.01953 105.31445 C 309.55081 96.491657 275.00005 91.151801 236.72266 90.537109 L 236.72266 134.27734 L 229.27344 131.9043 L 229.27344 90.476562 z M 98.095703 188.64453 C 105.22857 192.64826 113.40256 196.07358 122.52734 199.11523 C 150.70272 208.50702 188.03527 213.95312 229.27344 213.95312 C 270.51161 213.95312 307.84417 208.50702 336.01953 199.11523 C 345.10022 196.08832 353.24115 192.68198 360.34961 188.70312 L 360.34961 233.49609 C 359.68494 234.9853 358.12019 237.11613 354.53516 239.94141 C 349.06686 244.2509 339.67386 249.05928 327.5293 253.10742 C 303.23994 261.20393 268.09362 266.57422 229.27344 266.57422 C 190.45318 266.57422 155.30686 261.20393 131.01758 253.10742 C 118.87294 249.05928 109.47993 244.2509 104.01172 239.94141 C 100.21532 236.94961 98.688919 234.7394 98.095703 233.24414 L 98.095703 188.64453 z M 98.095703 268.10547 C 105.22831 272.10893 113.40318 275.53283 122.52734 278.57422 C 150.70272 287.96604 188.03527 293.41211 229.27344 293.41211 C 270.51161 293.41211 307.84417 287.96604 336.01953 278.57422 C 345.09992 275.54738 353.24123 272.14082 360.34961 268.16211 L 360.34961 312.95312 C 359.68494 314.44241 358.12019 316.575 354.53516 319.40039 C 349.06686 323.70977 339.67386 328.51815 327.5293 332.56641 C 303.23994 340.6628 268.09362 346.0332 229.27344 346.0332 C 190.45318 346.0332 155.30686 340.6628 131.01758 332.56641 C 118.87294 328.51815 109.47993 323.70977 104.01172 319.40039 C 100.21711 316.40992 98.689542 314.20026 98.095703 312.70508 L 98.095703 268.10547 z M 98.095703 347.56445 C 105.22831 351.56799 113.40318 354.99182 122.52734 358.0332 C 150.70272 367.42503 188.03527 372.87109 229.27344 372.87109 C 270.51161 372.87109 307.84417 367.42503 336.01953 358.0332 C 345.09992 355.00637 353.24123 351.59992 360.34961 347.62109 L 360.34961 389.01953 L 360.45117 389.01953 C 360.71309 389.67974 360.8125 390.21486 360.8125 390.5918 C 360.8125 391.82309 360.00353 394.54988 354.53516 398.85938 C 349.06686 403.16872 339.67386 407.97714 327.5293 412.02539 C 303.23994 420.12178 268.09362 425.49219 229.27344 425.49219 C 190.45318 425.49219 155.30687 420.12178 131.01758 412.02539 C 118.87294 407.97714 109.47992 403.16872 104.01172 398.85938 C 98.543415 394.54988 97.736328 391.82309 97.736328 390.5918 C 97.736328 390.2146 97.833026 389.67947 98.095703 389.01953 L 98.095703 347.56445 z "
           transform="matrix(0.26458333,0,0,0.26458333,34.210125,66.179024)"
           id="path863" />
        <rect
           style="opacity:1;fill:#aa4400;fill-opacity:1;stroke:none;stroke-width:4.4851985;stroke-linecap:round;stroke-linejoin:round;stroke-miterlimit:4;stroke-dasharray:none;stroke-opacity:1"
           id="rect867"
           width="4.2615113"
           height="27.192499"
           x="90.610603"
           y="73.861328" />
        <ellipse
           style="opacity:1;fill:#aa4400;fill-opacity:1;stroke:none;stroke-width:4.14049101;stroke-linecap:round;stroke-linejoin:round;stroke-miterlimit:4;stroke-dasharray:none;stroke-opacity:1"
           id="ellipse871"
           cx="93.006714"
           cy="72.643738"
           rx="7.1604943"
           ry="6.0196209" />
      </g>
      <path
         style="fill:#aa4400;fill-opacity:1;stroke:none;stroke-width:0.28410074px;stroke-linecap:butt;stroke-linejoin:miter;stroke-opacity:1"
         d="m 122.57138,111.48756 v 67.49889 l 11.07619,-7.46871 -0.22811,-59.82928 z"
         id="path881"
         inkscape:connector-curvature="0"
         sodipodi:nodetypes="ccccc" />
      <path
         style="fill:#e37100;fill-opacity:1;stroke:none;stroke-width:0.28410074px;stroke-linecap:butt;stroke-linejoin:miter;stroke-opacity:0.90196078"
         d="m 94.872118,101.05383 40.003762,6.71728 0.0924,66.90719 c 0,0 -0.94503,1.40883 -3.0278,2.94564 -2.08275,1.53681 -4.94956,2.83812 -4.94956,2.83812 V 112.6929 Z"
         id="path895"
         inkscape:connector-curvature="0"
         sodipodi:nodetypes="ccczccc" />
      <g
         id="g984">
        <g
           style="fill:#aa4400;fill-opacity:1"
           id="g879"
           transform="matrix(1.0737666,0,0,1.0737666,-12.533838,26.43499)">
          <ellipse
             ry="6.4255953"
             rx="10.396832"
             cy="103.2872"
             cx="89.391373"
             id="ellipse875"
             style="opacity:1;fill:#aa4400;fill-opacity:1;stroke:#f9f9f9;stroke-width:5;stroke-linecap:round;stroke-linejoin:round;stroke-miterlimit:4;stroke-dasharray:none;stroke-opacity:1" />
          <ellipse
             style="opacity:1;fill:#aa4400;fill-opacity:1;stroke:#f9f9f9;stroke-width:5;stroke-linecap:round;stroke-linejoin:round;stroke-miterlimit:4;stroke-dasharray:none;stroke-opacity:1"
             id="ellipse877"
             cx="110.65253"
             cy="103.2872"
             rx="10.396832"
             ry="6.4255953" />
        </g>
        <g
           id="g974">
          <rect
             rx="2.3637762"
             y="161.02959"
             x="73.151817"
             height="8.5683184"
             width="9.4527893"
             id="rect899"
             style="opacity:1;fill:#ffffff;fill-opacity:1;stroke:none;stroke-width:5.88692188;stroke-linecap:round;stroke-linejoin:round;stroke-miterlimit:4;stroke-dasharray:none;stroke-opacity:1" />
          <rect
             style="opacity:1;fill:#ffffff;fill-opacity:1;stroke:none;stroke-width:5.88692188;stroke-linecap:round;stroke-linejoin:round;stroke-miterlimit:4;stroke-dasharray:none;stroke-opacity:1"
             id="rect901"
             width="9.4527893"
             height="8.5683184"
             x="107.25925"
             y="161.02959"
             rx="2.3637762" />
          <rect
             rx="2.3637762"
             y="163.01804"
             x="95.761124"
             height="8.5683184"
             width="9.4527893"
             id="rect903"
             style="opacity:1;fill:#ffffff;fill-opacity:1;stroke:none;stroke-width:5.88692188;stroke-linecap:round;stroke-linejoin:round;stroke-miterlimit:4;stroke-dasharray:none;stroke-opacity:1" />
          <rect
             style="opacity:1;fill:#ffffff;fill-opacity:1;stroke:none;stroke-width:5.88692188;stroke-linecap:round;stroke-linejoin:round;stroke-miterlimit:4;stroke-dasharray:none;stroke-opacity:1"
             id="rect905"
             width="9.4527893"
             height="8.5683184"
             x="84.484116"
             y="163.01804"
             rx="2.3637762" />
        </g>
      </g>
    </g>
  </g>
</svg>
